<?xml version="1.0" encoding="UTF-8"?>
<!DOCTYPE svg PUBLIC "-//W3C//DTD SVG 1.1//EN" "http://www.w3.org/Graphics/SVG/1.1/DTD/svg11.dtd">
<svg xmlns="http://www.w3.org/2000/svg" version="1.1" width="1024px" height="1024px" style="shape-rendering:geometricPrecision; text-rendering:geometricPrecision; image-rendering:optimizeQuality; fill-rule:evenodd; clip-rule:evenodd" xmlns:xlink="http://www.w3.org/1999/xlink">
<g><path style="opacity:0.004" fill="#7f8a90" d="M 278.5,168.5 C 279.251,167.427 280.251,167.26 281.5,168C 280.552,168.483 279.552,168.649 278.5,168.5 Z"/></g>
<g><path style="opacity:0.11" fill="#d0d5dc" d="M 187.5,200.5 C 190.978,198.67 193.311,199.67 194.5,203.5C 192.787,201.15 190.453,200.15 187.5,200.5 Z"/></g>
<g><path style="opacity:0.149" fill="#b0b9c1" d="M 522.5,202.5 C 528.114,202.073 533.447,202.74 538.5,204.5C 532.991,204.125 527.658,203.458 522.5,202.5 Z"/></g>
<g><path style="opacity:0.059" fill="#ced1d7" d="M 194.5,203.5 C 196.027,203.427 197.027,204.094 197.5,205.5C 195.973,205.573 194.973,204.906 194.5,203.5 Z"/></g>
<g><path style="opacity:0.029" fill="#2f384a" d="M 259.5,204.5 C 272.327,203.34 285.327,203.173 298.5,204C 297.619,204.708 296.953,205.542 296.5,206.5C 295.5,206.833 294.833,207.5 294.5,208.5C 287.033,214.711 278.7,216.044 269.5,212.5C 268.486,211.326 267.153,210.66 265.5,210.5C 265.5,209.833 265.167,209.5 264.5,209.5C 263.167,207.5 261.5,205.833 259.5,204.5 Z"/></g>
<g><path style="opacity:1" fill="#232e42" d="M 522.5,202.5 C 527.658,203.458 532.991,204.125 538.5,204.5C 538.833,204.5 539.167,204.5 539.5,204.5C 543.099,205.344 546.766,205.677 550.5,205.5C 550.833,205.5 551.167,205.5 551.5,205.5C 555.236,206.989 559.236,207.656 563.5,207.5C 563.833,207.5 564.167,207.5 564.5,207.5C 564.082,208.222 563.416,208.722 562.5,209C 565.318,211.912 568.652,214.079 572.5,215.5C 573.086,215.291 573.586,214.957 574,214.5C 575.269,215.905 575.769,217.571 575.5,219.5C 583.553,219.225 591.553,219.725 599.5,221C 602.167,221.667 602.167,222.333 599.5,223C 596.854,223.497 594.187,223.664 591.5,223.5C 591.5,227.833 591.5,232.167 591.5,236.5C 594.167,236.5 596.833,236.5 599.5,236.5C 599.5,237.5 599.5,238.5 599.5,239.5C 602.167,239.5 604.833,239.5 607.5,239.5C 607.5,238.167 607.5,236.833 607.5,235.5C 612.833,235.5 618.167,235.5 623.5,235.5C 623.5,239.5 623.5,243.5 623.5,247.5C 626.167,247.5 628.833,247.5 631.5,247.5C 631.5,249.167 631.5,250.833 631.5,252.5C 639.483,251.834 647.483,251.501 655.5,251.5C 655.5,255.5 655.5,259.5 655.5,263.5C 658.167,263.5 660.833,263.5 663.5,263.5C 663.5,266.167 663.5,268.833 663.5,271.5C 666.167,271.5 668.833,271.5 671.5,271.5C 671.201,269.396 671.534,267.396 672.5,265.5C 676.197,270.583 681.197,272.583 687.5,271.5C 687.5,275.5 687.5,279.5 687.5,283.5C 692.833,283.5 698.167,283.5 703.5,283.5C 703.5,290.167 703.5,296.833 703.5,303.5C 708.833,303.5 714.167,303.5 719.5,303.5C 719.5,306.167 719.5,308.833 719.5,311.5C 720.5,311.5 721.5,311.5 722.5,311.5C 722.5,314.167 722.5,316.833 722.5,319.5C 726.833,319.5 731.167,319.5 735.5,319.5C 735.5,324.833 735.5,330.167 735.5,335.5C 741.5,335.5 747.5,335.5 753.5,335.5C 751.969,340.692 751.303,346.026 751.5,351.5C 756.813,352.068 761.813,351.235 766.5,349C 765.304,348.346 765.304,347.846 766.5,347.5C 767.127,352.739 768.127,358.072 769.5,363.5C 767.846,370.066 767.179,376.733 767.5,383.5C 772.875,383.172 778.208,383.505 783.5,384.5C 784.833,385.833 784.833,387.167 783.5,388.5C 783.846,389.696 784.346,389.696 785,388.5C 785.449,392.043 786.949,395.043 789.5,397.5C 787.687,403.342 787.02,409.342 787.5,415.5C 791.555,415.176 795.555,415.509 799.5,416.5C 800.833,417.833 800.833,419.167 799.5,420.5C 800.325,421.386 801.325,421.719 802.5,421.5C 802.955,424.203 803.622,426.87 804.5,429.5C 804.081,430.672 803.415,431.672 802.5,432.5C 803.325,433.386 804.325,433.719 805.5,433.5C 805.137,437.683 805.804,441.683 807.5,445.5C 805.881,448.642 805.215,451.975 805.5,455.5C 806.822,455.33 807.989,455.663 809,456.5C 810.371,461.07 811.538,465.737 812.5,470.5C 811.593,473.421 811.26,476.421 811.5,479.5C 813.5,479.5 815.5,479.5 817.5,479.5C 819.373,500.112 820.707,520.779 821.5,541.5C 820.762,554.07 819.762,566.57 818.5,579C 819.464,583.066 819.797,587.233 819.5,591.5C 818.178,591.33 817.011,591.663 816,592.5C 815.833,594.833 815.667,597.167 815.5,599.5C 815.574,602.287 816.24,604.787 817.5,607C 815.906,612.673 815.073,618.506 815,624.5C 814.667,624.167 814.333,623.833 814,623.5C 815.039,627.051 814.039,630.051 811,632.5C 810.381,644.004 807.548,654.838 802.5,665C 801.452,667.994 801.452,671.16 802.5,674.5C 801.301,678.099 800.301,681.765 799.5,685.5C 798.069,686.78 797.402,688.447 797.5,690.5C 796.687,692.261 795.687,693.928 794.5,695.5C 792.833,695.5 791.167,695.5 789.5,695.5C 789.162,698.011 789.162,700.345 789.5,702.5C 785.839,704.644 783.505,707.81 782.5,712C 780.945,713.646 779.279,713.979 777.5,713C 778.313,714.314 779.313,715.481 780.5,716.5C 778.307,720.857 774.807,723.524 770,724.5C 769.683,722.699 769.016,722.366 768,723.5C 768.032,725.578 767.866,727.578 767.5,729.5C 768.167,729.833 768.833,730.167 769.5,730.5C 768.96,731.748 768.293,732.915 767.5,734C 771.449,734.807 771.449,735.307 767.5,735.5C 767.881,737.942 767.214,738.609 765.5,737.5C 762.752,740.761 760.919,744.427 760,748.5C 758.686,749.313 757.519,750.313 756.5,751.5C 755.094,750.049 753.594,748.716 752,747.5C 751.51,748.793 751.343,750.127 751.5,751.5C 752.552,751.351 753.552,751.517 754.5,752C 753.663,753.011 753.33,754.178 753.5,755.5C 747.329,757.027 744.662,761.027 745.5,767.5C 743.748,769.246 742.415,771.246 741.5,773.5C 737.14,778.527 732.473,783.194 727.5,787.5C 725.596,787.738 724.262,788.738 723.5,790.5C 722.306,791.272 721.306,792.272 720.5,793.5C 718.596,793.738 717.262,794.738 716.5,796.5C 716.167,796.5 715.833,796.5 715.5,796.5C 713.272,796.777 711.605,797.777 710.5,799.5C 707.713,800.477 704.713,800.81 701.5,800.5C 698.518,800.037 695.518,799.704 692.5,799.5C 692.027,798.094 691.027,797.427 689.5,797.5C 687.167,794.5 684.5,791.833 681.5,789.5C 679.1,786.097 676.1,783.43 672.5,781.5C 669.349,778.737 666.349,775.737 663.5,772.5C 660.769,768.766 657.436,765.766 653.5,763.5C 648.264,758.719 643.264,753.719 638.5,748.5C 637.089,746.086 635.089,744.419 632.5,743.5C 632.5,743.167 632.5,742.833 632.5,742.5C 631.415,740.413 629.749,739.08 627.5,738.5C 627.5,738.167 627.5,737.833 627.5,737.5C 626.415,735.413 624.749,734.08 622.5,733.5C 622.167,732.5 621.5,731.833 620.5,731.5C 619.5,729.833 618.167,728.5 616.5,727.5C 613.769,723.766 610.436,720.766 606.5,718.5C 604.473,717.139 602.806,715.473 601.5,713.5C 599.1,710.097 596.1,707.43 592.5,705.5C 590.167,703.833 588.167,701.833 586.5,699.5C 583.167,695.5 579.5,691.833 575.5,688.5C 573.596,688.262 572.262,687.262 571.5,685.5C 568.105,681.102 564.105,677.436 559.5,674.5C 558.694,673.272 557.694,672.272 556.5,671.5C 552.773,666.77 548.44,662.77 543.5,659.5C 542.661,657.616 541.328,656.283 539.5,655.5C 535.773,650.77 531.44,646.77 526.5,643.5C 523.5,641.167 520.833,638.5 518.5,635.5C 518.167,634.5 517.5,633.833 516.5,633.5C 514.761,630.757 512.427,628.757 509.5,627.5C 509.5,627.167 509.5,626.833 509.5,626.5C 508.089,624.086 506.089,622.419 503.5,621.5C 502.833,620.833 502.167,620.167 501.5,619.5C 500.415,617.413 498.749,616.08 496.5,615.5C 496.5,615.167 496.5,614.833 496.5,614.5C 494.761,611.757 492.427,609.757 489.5,608.5C 488.5,608.167 487.833,607.5 487.5,606.5C 484.105,602.102 480.105,598.436 475.5,595.5C 474.272,594.694 473.272,593.694 472.5,592.5C 468.108,587.106 463.108,582.439 457.5,578.5C 456.5,578.167 455.833,577.5 455.5,576.5C 451.773,571.77 447.44,567.77 442.5,564.5C 440.833,562.833 439.167,561.167 437.5,559.5C 435.5,556.833 433.167,554.5 430.5,552.5C 427.94,550.727 425.607,548.727 423.5,546.5C 421.1,543.097 418.1,540.43 414.5,538.5C 411.527,536.194 408.86,533.527 406.5,530.5C 406.167,529.5 405.5,528.833 404.5,528.5C 402.5,525.833 400.167,523.5 397.5,521.5C 394.867,519.868 392.533,517.868 390.5,515.5C 385.443,509.441 379.776,504.107 373.5,499.5C 372.833,498.167 371.833,497.167 370.5,496.5C 370.167,495.5 369.5,494.833 368.5,494.5C 365.769,490.766 362.436,487.766 358.5,485.5C 357.272,484.694 356.272,483.694 355.5,482.5C 355.167,481.5 354.5,480.833 353.5,480.5C 352.833,480.5 352.5,480.167 352.5,479.5C 349.769,475.766 346.436,472.766 342.5,470.5C 340.473,469.139 338.806,467.473 337.5,465.5C 334.105,461.102 330.105,457.436 325.5,454.5C 323.167,452.833 321.167,450.833 319.5,448.5C 318.167,446.5 316.5,444.833 314.5,443.5C 313.738,441.738 312.404,440.738 310.5,440.5C 308.801,440.527 307.467,441.194 306.5,442.5C 306.667,584.5 306.5,726.5 306,868.5C 305.25,869.126 304.416,869.626 303.5,870C 265.5,870.667 227.5,870.667 189.5,870C 188.584,869.722 187.918,869.222 187.5,868.5C 194.162,867.951 200.828,867.284 207.5,866.5C 239.495,865.667 271.495,865.167 303.5,865C 271.563,863.522 239.563,863.022 207.5,863.5C 207.5,858.167 207.5,852.833 207.5,847.5C 202.167,847.5 196.833,847.5 191.5,847.5C 191.5,842.167 191.5,836.833 191.5,831.5C 196.833,831.5 202.167,831.5 207.5,831.5C 207.873,816.793 207.373,802.127 206,787.5C 202.295,781.346 200.462,774.68 200.5,767.5C 201.981,759.219 203.148,750.886 204,742.5C 204.798,739.107 205.798,735.774 207,732.5C 207.667,692.5 207.667,652.5 207,612.5C 206.908,604.17 206.075,595.836 204.5,587.5C 204.058,573.216 204.724,559.049 206.5,545C 205.432,540.559 204.765,536.059 204.5,531.5C 204.935,521.448 205.769,511.448 207,501.5C 207.5,416.834 207.667,332.167 207.5,247.5C 212.833,247.5 218.167,247.5 223.5,247.5C 223.5,250.167 223.5,252.833 223.5,255.5C 228.833,255.5 234.167,255.5 239.5,255.5C 239.5,260.833 239.5,266.167 239.5,271.5C 245.167,271.5 250.833,271.5 256.5,271.5C 256.134,267.27 255.134,263.27 253.5,259.5C 253.833,259.5 254.167,259.5 254.5,259.5C 256.481,261.144 258.481,262.81 260.5,264.5C 261.833,266.5 263.5,268.167 265.5,269.5C 266.167,270.833 267.167,271.833 268.5,272.5C 271.764,274.094 274.431,276.427 276.5,279.5C 278.896,284.106 282.563,286.273 287.5,286C 288.056,285.617 288.389,285.117 288.5,284.5C 292.1,282.57 295.1,279.903 297.5,276.5C 298.167,276.167 298.833,275.833 299.5,275.5C 301.5,274.167 303.167,272.5 304.5,270.5C 306.404,270.262 307.738,269.262 308.5,267.5C 308.833,267.5 309.167,267.5 309.5,267.5C 310.833,266.833 311.833,265.833 312.5,264.5C 313.849,263.047 315.515,262.047 317.5,261.5C 319.711,261.102 322.044,260.936 324.5,261C 323.672,260.085 322.672,259.419 321.5,259C 322.056,258.617 322.389,258.117 322.5,257.5C 322.833,257.5 323.167,257.5 323.5,257.5C 324.833,256.833 325.833,255.833 326.5,254.5C 327.209,253.596 328.209,253.263 329.5,253.5C 333.075,253.545 336.741,253.212 340.5,252.5C 343.028,251.483 343.028,250.316 340.5,249C 343.733,246.551 347.4,245.217 351.5,245C 350.903,243.372 351.237,241.705 352.5,240C 355.167,239.667 357.833,239.333 360.5,239C 362.426,238.578 363.426,237.411 363.5,235.5C 363.5,234.833 363.5,234.167 363.5,233.5C 367.794,233.205 371.461,231.538 374.5,228.5C 381.831,224.669 389.498,221.669 397.5,219.5C 401.915,219.139 405.915,217.806 409.5,215.5C 412.228,215.829 414.562,215.163 416.5,213.5C 419.781,213.58 422.781,212.913 425.5,211.5C 427.903,211.552 430.236,211.219 432.5,210.5C 433.167,210.5 433.5,210.167 433.5,209.5C 437.122,209.678 440.456,209.011 443.5,207.5C 445.984,206.631 448.651,205.964 451.5,205.5C 453.682,206.377 455.849,206.044 458,204.5C 459.752,205.286 461.586,205.12 463.5,204C 483.187,201.264 502.854,200.764 522.5,202.5 Z M 363.5,300.5 C 365.936,301.871 368.603,302.871 371.5,303.5C 373.569,306.573 376.236,308.906 379.5,310.5C 381.139,311.473 382.473,312.806 383.5,314.5C 385.239,317.243 387.573,319.243 390.5,320.5C 393.231,324.234 396.564,327.234 400.5,329.5C 402.569,332.573 405.236,334.906 408.5,336.5C 410.473,339.139 412.806,341.473 415.5,343.5C 417.615,346.517 420.282,347.184 423.5,345.5C 425.786,345.405 427.786,344.738 429.5,343.5C 431.786,343.405 433.786,342.738 435.5,341.5C 437.786,341.405 439.786,340.738 441.5,339.5C 444.152,339.59 446.485,338.924 448.5,337.5C 451.781,337.58 454.781,336.913 457.5,335.5C 478.254,331.701 499.087,330.034 520,330.5C 528.645,332.248 537.145,333.581 545.5,334.5C 547.905,335.768 550.572,336.435 553.5,336.5C 555.01,337.728 556.51,337.728 558,336.5C 558.71,337.973 559.876,338.64 561.5,338.5C 566.341,340.336 571.341,342.003 576.5,343.5C 580.336,345.465 584.336,347.131 588.5,348.5C 591.088,350.625 594.088,351.958 597.5,352.5C 597.833,352.5 598.167,352.5 598.5,352.5C 599.035,354.446 600.368,355.446 602.5,355.5C 602.842,356.338 603.508,356.672 604.5,356.5C 604.973,357.906 605.973,358.573 607.5,358.5C 608.167,358.833 608.833,359.167 609.5,359.5C 609.973,360.906 610.973,361.573 612.5,361.5C 613.222,362.551 614.222,363.218 615.5,363.5C 615.973,364.906 616.973,365.573 618.5,365.5C 618.973,366.906 619.973,367.573 621.5,367.5C 621.973,368.906 622.973,369.573 624.5,369.5C 624.842,370.338 625.508,370.672 626.5,370.5C 626.5,371.833 627.167,372.5 628.5,372.5C 629.262,374.262 630.596,375.262 632.5,375.5C 639.202,382.035 645.369,389.035 651,396.5C 653.588,399.2 656.421,401.533 659.5,403.5C 660.167,404.833 661.167,405.833 662.5,406.5C 662.738,408.404 663.738,409.738 665.5,410.5C 666.026,412.23 667.026,413.564 668.5,414.5C 669.279,416.677 670.613,418.344 672.5,419.5C 672.263,420.791 672.596,421.791 673.5,422.5C 673.427,424.027 674.094,425.027 675.5,425.5C 675.328,426.492 675.662,427.158 676.5,427.5C 676.427,429.027 677.094,430.027 678.5,430.5C 678.992,432.819 679.992,434.819 681.5,436.5C 682.326,439.485 683.659,442.151 685.5,444.5C 685.66,446.153 686.326,447.486 687.5,448.5C 687.66,450.153 688.326,451.486 689.5,452.5C 690.263,456.137 691.597,459.47 693.5,462.5C 693.595,464.786 694.262,466.786 695.5,468.5C 695.41,471.152 696.076,473.485 697.5,475.5C 698.055,479.397 699.055,483.063 700.5,486.5C 701.167,486.5 701.5,486.833 701.5,487.5C 700.903,487.735 700.57,488.235 700.5,489C 700.954,491.03 701.62,492.863 702.5,494.5C 702.5,494.833 702.5,495.167 702.5,495.5C 703.603,502.12 704.27,508.786 704.5,515.5C 705.193,522.32 705.86,529.153 706.5,536C 705.689,542.81 705.356,549.644 705.5,556.5C 704.551,560.657 703.884,564.99 703.5,569.5C 702.735,572.096 702.401,574.763 702.5,577.5C 701.62,579.137 700.954,580.97 700.5,583C 700.57,583.765 700.903,584.265 701.5,584.5C 701.5,585.167 701.167,585.5 700.5,585.5C 699.13,588.619 698.13,591.952 697.5,595.5C 694.428,603.972 691.095,612.305 687.5,620.5C 686.326,621.514 685.66,622.847 685.5,624.5C 683.711,625.877 681.711,626.877 679.5,627.5C 678.486,626.326 677.153,625.66 675.5,625.5C 672.152,621.153 668.152,617.486 663.5,614.5C 661.833,610.833 659.167,608.167 655.5,606.5C 654.833,605.167 653.833,604.167 652.5,603.5C 652.167,603.5 651.833,603.5 651.5,603.5C 651.5,601.5 650.5,600.5 648.5,600.5C 646.833,596.833 644.167,594.167 640.5,592.5C 639.415,590.413 637.749,589.08 635.5,588.5C 633.5,584.5 630.5,581.5 626.5,579.5C 624.781,576.781 622.447,574.781 619.5,573.5C 618.833,570.833 617.167,569.167 614.5,568.5C 614.5,567.167 613.833,566.5 612.5,566.5C 612.5,565.167 611.833,564.5 610.5,564.5C 610.167,563.5 609.5,562.833 608.5,562.5C 607.089,560.086 605.089,558.419 602.5,557.5C 602.5,556.833 602.167,556.5 601.5,556.5C 600.833,553.833 599.167,552.167 596.5,551.5C 595.833,550.167 594.833,549.167 593.5,548.5C 591.1,545.097 588.1,542.43 584.5,540.5C 582.781,537.781 580.447,535.781 577.5,534.5C 576.167,531.167 573.833,528.833 570.5,527.5C 569.205,526.512 567.872,525.512 566.5,524.5C 565.167,521.167 562.833,518.833 559.5,517.5C 558.167,515.5 556.5,513.833 554.5,512.5C 552.431,509.427 549.764,507.094 546.5,505.5C 545.5,503.833 544.167,502.5 542.5,501.5C 540.431,498.427 537.764,496.094 534.5,494.5C 533.5,492.833 532.167,491.5 530.5,490.5C 529.089,488.086 527.089,486.419 524.5,485.5C 524.167,483.167 522.833,481.833 520.5,481.5C 518.441,479.103 516.108,477.103 513.5,475.5C 512.167,472.167 509.833,469.833 506.5,468.5C 504.146,465.149 501.146,462.482 497.5,460.5C 497.5,458.5 496.5,457.5 494.5,457.5C 493.5,455.167 491.833,453.5 489.5,452.5C 487.761,449.757 485.427,447.757 482.5,446.5C 480.509,443.517 477.843,441.183 474.5,439.5C 474.167,437.167 472.833,435.833 470.5,435.5C 470.5,433.5 469.5,432.5 467.5,432.5C 466.694,431.272 465.694,430.272 464.5,429.5C 462.1,426.097 459.1,423.43 455.5,421.5C 453.781,418.781 451.447,416.781 448.5,415.5C 446.833,411.833 444.167,409.167 440.5,407.5C 440.167,406.5 439.5,405.833 438.5,405.5C 436.431,402.427 433.764,400.094 430.5,398.5C 429.127,396.793 427.461,395.46 425.5,394.5C 425.167,392.167 423.833,390.833 421.5,390.5C 421.5,389.833 421.167,389.5 420.5,389.5C 418.5,385.5 415.5,382.5 411.5,380.5C 411.167,379.5 410.5,378.833 409.5,378.5C 408.5,376.833 407.167,375.5 405.5,374.5C 405.167,374.5 404.833,374.5 404.5,374.5C 402.833,370.833 400.167,368.167 396.5,366.5C 396.167,365.5 395.5,364.833 394.5,364.5C 393.5,362.833 392.167,361.5 390.5,360.5C 387.769,356.766 384.436,353.766 380.5,351.5C 379.5,350.5 378.5,349.5 377.5,348.5C 375.761,345.757 373.427,343.757 370.5,342.5C 370.5,341.167 369.833,340.5 368.5,340.5C 367.167,338.5 365.5,336.833 363.5,335.5C 361.431,332.427 358.764,330.094 355.5,328.5C 355.027,327.094 354.027,326.427 352.5,326.5C 352.5,325.167 351.833,324.5 350.5,324.5C 350.5,323.167 349.833,322.5 348.5,322.5C 348.167,321.5 347.5,320.833 346.5,320.5C 345.89,318.566 344.89,316.899 343.5,315.5C 342.636,311.869 342.969,308.202 344.5,304.5C 346.167,303.5 347.5,302.167 348.5,300.5C 350.734,299.553 353.068,298.886 355.5,298.5C 358.178,299.175 360.844,299.842 363.5,300.5 Z"/></g>
<g><path style="opacity:0.129" fill="#b8c2c9" d="M 539.5,204.5 C 539.735,203.903 540.235,203.57 541,203.5C 544.324,204.05 547.491,204.717 550.5,205.5C 546.766,205.677 543.099,205.344 539.5,204.5 Z"/></g>
<g><path style="opacity:0.004" fill="#bec6d0" d="M 259.5,204.5 C 261.5,205.833 263.167,207.5 264.5,209.5C 261.833,208.833 260.167,207.167 259.5,204.5 Z"/></g>
<g><path style="opacity:0.306" fill="#bbc5c8" d="M 551.5,205.5 C 555.733,205.539 559.733,206.205 563.5,207.5C 559.236,207.656 555.236,206.989 551.5,205.5 Z"/></g>
<g><path style="opacity:0.004" fill="#edf2fa" d="M 296.5,206.5 C 296.5,207.833 295.833,208.5 294.5,208.5C 294.833,207.5 295.5,206.833 296.5,206.5 Z"/></g>
<g><path style="opacity:0.071" fill="#dde6eb" d="M 200.5,208.5 C 204.167,210.167 206.833,212.833 208.5,216.5C 205.5,214.167 202.833,211.5 200.5,208.5 Z"/></g>
<g><path style="opacity:0.663" fill="#a2aeb9" d="M 443.5,207.5 C 440.456,209.011 437.122,209.678 433.5,209.5C 436.589,208.215 439.922,207.549 443.5,207.5 Z"/></g>
<g><path style="opacity:0.208" fill="#b4bbc3" d="M 573.5,209.5 C 578.12,209.74 582.453,210.74 586.5,212.5C 581.88,212.26 577.547,211.26 573.5,209.5 Z"/></g>
<g><path style="opacity:0.969" fill="#8d959e" d="M 432.5,210.5 C 430.236,211.219 427.903,211.552 425.5,211.5C 427.137,210.62 428.97,209.954 431,209.5C 431.765,209.57 432.265,209.903 432.5,210.5 Z"/></g>
<g><path style="opacity:0.022" fill="#d5dde3" d="M 265.5,210.5 C 267.153,210.66 268.486,211.326 269.5,212.5C 267.62,212.771 266.287,212.104 265.5,210.5 Z"/></g>
<g><path style="opacity:0.851" fill="#9ea9af" d="M 425.5,211.5 C 422.781,212.913 419.781,213.58 416.5,213.5C 419.219,212.087 422.219,211.42 425.5,211.5 Z"/></g>
<g><path style="opacity:0.196" fill="#c4ced5" d="M 586.5,212.5 C 589.152,212.41 591.485,213.076 593.5,214.5C 590.848,214.59 588.515,213.924 586.5,212.5 Z"/></g>
<g><path style="opacity:0.89" fill="#a3adb5" d="M 416.5,213.5 C 414.562,215.163 412.228,215.829 409.5,215.5C 411.599,214.388 413.933,213.721 416.5,213.5 Z"/></g>
<g><path style="opacity:0.09" fill="#c3cbd2" d="M 593.5,214.5 C 596.152,214.41 598.485,215.076 600.5,216.5C 597.848,216.59 595.515,215.924 593.5,214.5 Z"/></g>
<g><path style="opacity:1" fill="#262e43" d="M 187.5,200.5 C 190.453,200.15 192.787,201.15 194.5,203.5C 194.973,204.906 195.973,205.573 197.5,205.5C 198.833,206.167 199.833,207.167 200.5,208.5C 202.833,211.5 205.5,214.167 208.5,216.5C 209.585,218.587 211.251,219.92 213.5,220.5C 214.833,221.167 215.833,222.167 216.5,223.5C 218.833,226.5 221.5,229.167 224.5,231.5C 227.784,233.117 230.451,235.45 232.5,238.5C 234.833,241.5 237.5,244.167 240.5,246.5C 240.973,247.906 241.973,248.573 243.5,248.5C 244.833,249.167 245.833,250.167 246.5,251.5C 248.833,254.167 251.167,256.833 253.5,259.5C 255.134,263.27 256.134,267.27 256.5,271.5C 250.833,271.5 245.167,271.5 239.5,271.5C 239.5,266.167 239.5,260.833 239.5,255.5C 234.167,255.5 228.833,255.5 223.5,255.5C 223.5,252.833 223.5,250.167 223.5,247.5C 218.167,247.5 212.833,247.5 207.5,247.5C 207.667,332.167 207.5,416.834 207,501.5C 205.769,511.448 204.935,521.448 204.5,531.5C 204.765,536.059 205.432,540.559 206.5,545C 204.724,559.049 204.058,573.216 204.5,587.5C 206.075,595.836 206.908,604.17 207,612.5C 207.667,652.5 207.667,692.5 207,732.5C 205.798,735.774 204.798,739.107 204,742.5C 203.148,750.886 201.981,759.219 200.5,767.5C 200.462,774.68 202.295,781.346 206,787.5C 207.373,802.127 207.873,816.793 207.5,831.5C 202.167,831.5 196.833,831.5 191.5,831.5C 191.5,836.833 191.5,842.167 191.5,847.5C 196.833,847.5 202.167,847.5 207.5,847.5C 207.5,852.833 207.5,858.167 207.5,863.5C 239.563,863.022 271.563,863.522 303.5,865C 271.495,865.167 239.495,865.667 207.5,866.5C 200.828,867.284 194.162,867.951 187.5,868.5C 188.063,850.808 189.063,833.141 190.5,815.5C 190.273,628.844 190.106,442.177 190,255.5C 189.827,249.984 189.327,244.651 188.5,239.5C 188.832,228.417 188.499,218.083 187.5,208.5C 186.167,205.833 186.167,203.167 187.5,200.5 Z"/></g>
<g><path style="opacity:0.11" fill="#c4c8d0" d="M 208.5,216.5 C 210.749,217.08 212.415,218.413 213.5,220.5C 211.251,219.92 209.585,218.587 208.5,216.5 Z"/></g>
<g><path style="opacity:0.812" fill="#a0acb2" d="M 409.5,215.5 C 405.915,217.806 401.915,219.139 397.5,219.5C 401.216,217.595 405.216,216.261 409.5,215.5 Z"/></g>
<g><path style="opacity:0.396" fill="#bac0c7" d="M 615.5,221.5 C 618.542,221.733 621.208,222.733 623.5,224.5C 620.458,224.267 617.792,223.267 615.5,221.5 Z"/></g>
<g><path style="opacity:0.059" fill="#d8e0e6" d="M 216.5,223.5 C 220.167,225.167 222.833,227.833 224.5,231.5C 221.5,229.167 218.833,226.5 216.5,223.5 Z"/></g>
<g><path style="opacity:1" fill="#7c8389" d="M 623.5,224.5 C 625.553,224.402 627.22,225.069 628.5,226.5C 627.178,226.33 626.011,226.663 625,227.5C 624.487,226.473 623.987,225.473 623.5,224.5 Z"/></g>
<g><path style="opacity:0.306" fill="#c4ccd0" d="M 637.5,230.5 C 644.752,232.793 651.419,236.126 657.5,240.5C 650.516,237.675 643.849,234.341 637.5,230.5 Z"/></g>
<g><path style="opacity:1" fill="#646f77" d="M 374.5,228.5 C 371.461,231.538 367.794,233.205 363.5,233.5C 366.74,231.049 370.407,229.382 374.5,228.5 Z"/></g>
<g><path style="opacity:0.949" fill="#747f89" d="M 363.5,233.5 C 363.5,234.167 363.5,234.833 363.5,235.5C 361.784,235.629 360.117,235.962 358.5,236.5C 359.659,234.75 361.326,233.75 363.5,233.5 Z"/></g>
<g><path style="opacity:0.059" fill="#d4dde3" d="M 232.5,238.5 C 236.167,240.167 238.833,242.833 240.5,246.5C 237.5,244.167 234.833,241.5 232.5,238.5 Z"/></g>
<g><path style="opacity:0.239" fill="#b2c1c2" d="M 350.5,240.5 C 349.71,241.401 348.71,242.068 347.5,242.5C 347.821,240.952 348.821,240.285 350.5,240.5 Z"/></g>
<g><path style="opacity:0.306" fill="#bec7cc" d="M 344.5,243.5 C 343.341,245.25 341.674,246.25 339.5,246.5C 340.659,244.75 342.326,243.75 344.5,243.5 Z"/></g>
<g><path style="opacity:0.129" fill="#bdc3cb" d="M 240.5,246.5 C 242.027,246.427 243.027,247.094 243.5,248.5C 241.973,248.573 240.973,247.906 240.5,246.5 Z"/></g>
<g><path style="opacity:0.098" fill="#e0e5e9" d="M 671.5,248.5 C 673.027,248.427 674.027,249.094 674.5,250.5C 672.973,250.573 671.973,249.906 671.5,248.5 Z"/></g>
<g><path style="opacity:0.059" fill="#d4dce0" d="M 246.5,251.5 C 250.167,253.167 252.833,255.833 254.5,259.5C 254.167,259.5 253.833,259.5 253.5,259.5C 251.167,256.833 248.833,254.167 246.5,251.5 Z"/></g>
<g><path style="opacity:1" fill="#303b48" d="M 363.5,235.5 C 363.426,237.411 362.426,238.578 360.5,239C 357.833,239.333 355.167,239.667 352.5,240C 351.237,241.705 350.903,243.372 351.5,245C 347.4,245.217 343.733,246.551 340.5,249C 343.028,250.316 343.028,251.483 340.5,252.5C 336.741,253.212 333.075,253.545 329.5,253.5C 332.057,250.208 335.391,247.874 339.5,246.5C 341.674,246.25 343.341,245.25 344.5,243.5C 345.391,242.89 346.391,242.557 347.5,242.5C 348.71,242.068 349.71,241.401 350.5,240.5C 352.579,238.127 355.246,236.794 358.5,236.5C 360.117,235.962 361.784,235.629 363.5,235.5 Z"/></g>
<g><path style="opacity:0.11" fill="#d7dbe4" d="M 674.5,250.5 C 676.027,250.427 677.027,251.094 677.5,252.5C 675.973,252.573 674.973,251.906 674.5,250.5 Z"/></g>
<g><path style="opacity:0.533" fill="#b0b9be" d="M 326.5,254.5 C 325.833,255.833 324.833,256.833 323.5,257.5C 323.5,255.5 324.5,254.5 326.5,254.5 Z"/></g>
<g><path style="opacity:0.051" fill="#d5dbe0" d="M 686.5,258.5 C 687.833,258.5 688.5,259.167 688.5,260.5C 687.5,260.167 686.833,259.5 686.5,258.5 Z"/></g>
<g><path style="opacity:1" fill="#57606d" d="M 322.5,257.5 C 322.389,258.117 322.056,258.617 321.5,259C 322.672,259.419 323.672,260.085 324.5,261C 322.044,260.936 319.711,261.102 317.5,261.5C 318.539,259.469 320.205,258.136 322.5,257.5 Z"/></g>
<g><path style="opacity:0.129" fill="#e0e6ed" d="M 689.5,260.5 C 691.027,260.427 692.027,261.094 692.5,262.5C 690.973,262.573 689.973,261.906 689.5,260.5 Z"/></g>
<g><path style="opacity:0.059" fill="#ecf4f9" d="M 260.5,264.5 C 263.167,265.167 264.833,266.833 265.5,269.5C 263.5,268.167 261.833,266.5 260.5,264.5 Z"/></g>
<g><path style="opacity:0.486" fill="#b7bfc7" d="M 312.5,264.5 C 311.833,265.833 310.833,266.833 309.5,267.5C 309.5,265.5 310.5,264.5 312.5,264.5 Z"/></g>
<g><path style="opacity:1" fill="#7d858e" d="M 693.5,263.5 C 696.135,264.473 698.135,266.14 699.5,268.5C 697.742,267.001 695.909,266.668 694,267.5C 693.51,266.207 693.343,264.873 693.5,263.5 Z"/></g>
<g><path style="opacity:0.365" fill="#c5ccd6" d="M 308.5,267.5 C 307.738,269.262 306.404,270.262 304.5,270.5C 305.262,268.738 306.596,267.738 308.5,267.5 Z"/></g>
<g><path style="opacity:0.059" fill="#ccd4d7" d="M 265.5,269.5 C 267.5,269.5 268.5,270.5 268.5,272.5C 267.167,271.833 266.167,270.833 265.5,269.5 Z"/></g>
<g><path style="opacity:1" fill="#2b3345" d="M 564.5,207.5 C 567.727,207.676 570.727,208.343 573.5,209.5C 577.547,211.26 581.88,212.26 586.5,212.5C 588.515,213.924 590.848,214.59 593.5,214.5C 595.515,215.924 597.848,216.59 600.5,216.5C 605.715,217.572 610.715,219.238 615.5,221.5C 617.792,223.267 620.458,224.267 623.5,224.5C 623.987,225.473 624.487,226.473 625,227.5C 626.011,226.663 627.178,226.33 628.5,226.5C 631.672,227.589 634.672,228.922 637.5,230.5C 643.849,234.341 650.516,237.675 657.5,240.5C 662.5,242.664 667.167,245.331 671.5,248.5C 671.973,249.906 672.973,250.573 674.5,250.5C 674.973,251.906 675.973,252.573 677.5,252.5C 680.715,254.199 683.715,256.199 686.5,258.5C 686.833,259.5 687.5,260.167 688.5,260.5C 688.833,260.5 689.167,260.5 689.5,260.5C 689.973,261.906 690.973,262.573 692.5,262.5C 692.5,263.167 692.833,263.5 693.5,263.5C 693.343,264.873 693.51,266.207 694,267.5C 695.909,266.668 697.742,267.001 699.5,268.5C 700.5,269.167 701.5,269.833 702.5,270.5C 703.262,272.262 704.596,273.262 706.5,273.5C 707.167,273.5 707.5,273.833 707.5,274.5C 708.167,275.833 709.167,276.833 710.5,277.5C 710.973,278.906 711.973,279.573 713.5,279.5C 715.5,282.167 717.833,284.5 720.5,286.5C 722.186,288.411 723.019,290.411 723,292.5C 724.414,291.587 725.914,291.587 727.5,292.5C 729.833,294.167 731.833,296.167 733.5,298.5C 733.738,300.404 734.738,301.738 736.5,302.5C 738.5,305.167 740.833,307.5 743.5,309.5C 743.833,310.167 744.167,310.833 744.5,311.5C 745.5,313.167 746.833,314.5 748.5,315.5C 748.5,315.833 748.5,316.167 748.5,316.5C 749.5,318.167 750.833,319.5 752.5,320.5C 752.5,320.833 752.5,321.167 752.5,321.5C 753.167,322.833 754.167,323.833 755.5,324.5C 755.5,324.833 755.5,325.167 755.5,325.5C 756.167,326.833 757.167,327.833 758.5,328.5C 758.5,328.833 758.5,329.167 758.5,329.5C 758.833,330.5 759.5,331.167 760.5,331.5C 761.338,331.842 761.672,332.508 761.5,333.5C 761.833,334.5 762.5,335.167 763.5,335.5C 763.427,337.027 764.094,338.027 765.5,338.5C 766.551,339.222 767.218,340.222 767.5,341.5C 767.427,343.027 768.094,344.027 769.5,344.5C 769.75,346.674 770.75,348.341 772.5,349.5C 772.427,351.027 773.094,352.027 774.5,352.5C 775.345,353.671 776.011,355.005 776.5,356.5C 776.427,358.027 777.094,359.027 778.5,359.5C 779.338,359.842 779.672,360.508 779.5,361.5C 779.75,363.674 780.75,365.341 782.5,366.5C 785.341,370.849 787.674,375.516 789.5,380.5C 789.402,382.553 790.069,384.22 791.5,385.5C 792.931,386.78 793.598,388.447 793.5,390.5C 793.66,392.153 794.326,393.486 795.5,394.5C 798.262,399.105 800.262,404.105 801.5,409.5C 801.259,411.898 801.926,413.898 803.5,415.5C 803.259,417.898 803.926,419.898 805.5,421.5C 805.32,425.286 806.32,428.619 808.5,431.5C 808.5,431.833 808.5,432.167 808.5,432.5C 808.547,435.969 809.213,439.302 810.5,442.5C 812.075,444.114 812.741,446.114 812.5,448.5C 812.448,450.903 812.781,453.236 813.5,455.5C 813.833,456.167 814.167,456.833 814.5,457.5C 814.42,460.781 815.087,463.781 816.5,466.5C 819.259,478.58 821.259,490.914 822.5,503.5C 821.378,507.909 821.711,512.242 823.5,516.5C 823.12,518.659 822.787,520.826 822.5,523C 825.132,538.829 825.132,554.663 822.5,570.5C 822.636,572.865 822.97,575.198 823.5,577.5C 822.509,583.515 821.509,589.515 820.5,595.5C 819.8,599.798 819.467,604.131 819.5,608.5C 819.048,612.989 818.381,617.322 817.5,621.5C 815.989,624.544 815.322,627.878 815.5,631.5C 814.083,641.169 811.749,650.503 808.5,659.5C 807.622,661.019 806.622,661.853 805.5,662C 806.127,664.411 806.127,666.911 805.5,669.5C 805.737,670.791 805.404,671.791 804.5,672.5C 803.833,673.167 803.167,673.833 802.5,674.5C 801.452,671.16 801.452,667.994 802.5,665C 807.548,654.838 810.381,644.004 811,632.5C 814.039,630.051 815.039,627.051 814,623.5C 814.333,623.833 814.667,624.167 815,624.5C 815.073,618.506 815.906,612.673 817.5,607C 816.24,604.787 815.574,602.287 815.5,599.5C 815.667,597.167 815.833,594.833 816,592.5C 817.011,591.663 818.178,591.33 819.5,591.5C 819.797,587.233 819.464,583.066 818.5,579C 819.762,566.57 820.762,554.07 821.5,541.5C 820.707,520.779 819.373,500.112 817.5,479.5C 815.5,479.5 813.5,479.5 811.5,479.5C 811.26,476.421 811.593,473.421 812.5,470.5C 811.538,465.737 810.371,461.07 809,456.5C 807.989,455.663 806.822,455.33 805.5,455.5C 805.215,451.975 805.881,448.642 807.5,445.5C 805.804,441.683 805.137,437.683 805.5,433.5C 804.325,433.719 803.325,433.386 802.5,432.5C 803.415,431.672 804.081,430.672 804.5,429.5C 803.622,426.87 802.955,424.203 802.5,421.5C 801.325,421.719 800.325,421.386 799.5,420.5C 800.833,419.167 800.833,417.833 799.5,416.5C 795.555,415.509 791.555,415.176 787.5,415.5C 787.02,409.342 787.687,403.342 789.5,397.5C 786.949,395.043 785.449,392.043 785,388.5C 784.346,389.696 783.846,389.696 783.5,388.5C 784.833,387.167 784.833,385.833 783.5,384.5C 778.208,383.505 772.875,383.172 767.5,383.5C 767.179,376.733 767.846,370.066 769.5,363.5C 768.127,358.072 767.127,352.739 766.5,347.5C 765.304,347.846 765.304,348.346 766.5,349C 761.813,351.235 756.813,352.068 751.5,351.5C 751.303,346.026 751.969,340.692 753.5,335.5C 747.5,335.5 741.5,335.5 735.5,335.5C 735.5,330.167 735.5,324.833 735.5,319.5C 731.167,319.5 726.833,319.5 722.5,319.5C 722.5,316.833 722.5,314.167 722.5,311.5C 721.5,311.5 720.5,311.5 719.5,311.5C 719.5,308.833 719.5,306.167 719.5,303.5C 714.167,303.5 708.833,303.5 703.5,303.5C 703.5,296.833 703.5,290.167 703.5,283.5C 698.167,283.5 692.833,283.5 687.5,283.5C 687.5,279.5 687.5,275.5 687.5,271.5C 681.197,272.583 676.197,270.583 672.5,265.5C 671.534,267.396 671.201,269.396 671.5,271.5C 668.833,271.5 666.167,271.5 663.5,271.5C 663.5,268.833 663.5,266.167 663.5,263.5C 660.833,263.5 658.167,263.5 655.5,263.5C 655.5,259.5 655.5,255.5 655.5,251.5C 647.483,251.501 639.483,251.834 631.5,252.5C 631.5,250.833 631.5,249.167 631.5,247.5C 628.833,247.5 626.167,247.5 623.5,247.5C 623.5,243.5 623.5,239.5 623.5,235.5C 618.167,235.5 612.833,235.5 607.5,235.5C 607.5,236.833 607.5,238.167 607.5,239.5C 604.833,239.5 602.167,239.5 599.5,239.5C 599.5,238.5 599.5,237.5 599.5,236.5C 596.833,236.5 594.167,236.5 591.5,236.5C 591.5,232.167 591.5,227.833 591.5,223.5C 594.187,223.664 596.854,223.497 599.5,223C 602.167,222.333 602.167,221.667 599.5,221C 591.553,219.725 583.553,219.225 575.5,219.5C 575.769,217.571 575.269,215.905 574,214.5C 573.586,214.957 573.086,215.291 572.5,215.5C 568.652,214.079 565.318,211.912 562.5,209C 563.416,208.722 564.082,208.222 564.5,207.5 Z"/></g>
<g><path style="opacity:0.059" fill="#dbe2e7" d="M 702.5,270.5 C 704.404,270.738 705.738,271.738 706.5,273.5C 704.596,273.262 703.262,272.262 702.5,270.5 Z"/></g>
<g><path style="opacity:0.325" fill="#c8d1d8" d="M 304.5,270.5 C 303.167,272.5 301.5,274.167 299.5,275.5C 300.167,272.833 301.833,271.167 304.5,270.5 Z"/></g>
<g><path style="opacity:0.059" fill="#dce3e7" d="M 707.5,274.5 C 709.5,274.5 710.5,275.5 710.5,277.5C 709.167,276.833 708.167,275.833 707.5,274.5 Z"/></g>
<g><path style="opacity:0.137" fill="#bcc3ca" d="M 710.5,277.5 C 712.027,277.427 713.027,278.094 713.5,279.5C 711.973,279.573 710.973,278.906 710.5,277.5 Z"/></g>
<g><path style="opacity:0.071" fill="#e5eff3" d="M 276.5,279.5 C 279.225,280.713 281.559,282.546 283.5,285C 285.197,285.384 286.863,285.218 288.5,284.5C 288.389,285.117 288.056,285.617 287.5,286C 282.563,286.273 278.896,284.106 276.5,279.5 Z"/></g>
<g><path style="opacity:0.059" fill="#dce2e7" d="M 713.5,279.5 C 716.833,280.833 719.167,283.167 720.5,286.5C 717.833,284.5 715.5,282.167 713.5,279.5 Z"/></g>
<g><path style="opacity:0.584" fill="#b2bac1" d="M 297.5,276.5 C 295.1,279.903 292.1,282.57 288.5,284.5C 290.9,281.097 293.9,278.43 297.5,276.5 Z"/></g>
<g><path style="opacity:0.012" fill="#424d59" d="M 789.5,286.5 C 789.027,285.094 788.027,284.427 786.5,284.5C 786.389,283.883 786.056,283.383 785.5,283C 794.5,282.333 803.5,282.333 812.5,283C 809.624,285.437 806.29,286.77 802.5,287C 797.98,287.814 793.646,287.647 789.5,286.5 Z"/></g>
<g><path style="opacity:0.016" fill="#c0cdd5" d="M 786.5,284.5 C 788.027,284.427 789.027,285.094 789.5,286.5C 787.973,286.573 786.973,285.906 786.5,284.5 Z"/></g>
<g><path style="opacity:1" fill="#6d737f" d="M 720.5,286.5 C 723.427,287.757 725.761,289.757 727.5,292.5C 725.914,291.587 724.414,291.587 723,292.5C 723.019,290.411 722.186,288.411 720.5,286.5 Z"/></g>
<g><path style="opacity:0.278" fill="#bbc5ce" d="M 363.5,300.5 C 360.844,299.842 358.178,299.175 355.5,298.5C 353.068,298.886 350.734,299.553 348.5,300.5C 348.5,300.167 348.5,299.833 348.5,299.5C 353.786,296.622 358.786,296.956 363.5,300.5 Z"/></g>
<g><path style="opacity:0.804" fill="#a7adb4" d="M 733.5,298.5 C 735.262,299.262 736.262,300.596 736.5,302.5C 734.738,301.738 733.738,300.404 733.5,298.5 Z"/></g>
<g><path style="opacity:1" fill="#5d6779" d="M 363.5,300.5 C 366.872,301.449 370.205,301.449 373.5,300.5C 373.833,300.667 374.167,300.833 374.5,301C 373.619,301.708 372.953,302.542 372.5,303.5C 372.167,303.5 371.833,303.5 371.5,303.5C 368.603,302.871 365.936,301.871 363.5,300.5 Z"/></g>
<g><path style="opacity:0.129" fill="#ced9df" d="M 348.5,300.5 C 347.5,302.167 346.167,303.5 344.5,304.5C 344.833,302.167 346.167,300.833 348.5,300.5 Z"/></g>
<g><path style="opacity:0.071" fill="#d8dfe4" d="M 736.5,302.5 C 739.833,303.833 742.167,306.167 743.5,309.5C 740.833,307.5 738.5,305.167 736.5,302.5 Z"/></g>
<g><path style="opacity:0.384" fill="#cad3db" d="M 371.5,303.5 C 371.833,303.5 372.167,303.5 372.5,303.5C 375.167,305.5 377.5,307.833 379.5,310.5C 376.236,308.906 373.569,306.573 371.5,303.5 Z"/></g>
<g><path style="opacity:0.22" fill="#e1e7ed" d="M 744.5,311.5 C 746.833,311.833 748.167,313.167 748.5,315.5C 746.833,314.5 745.5,313.167 744.5,311.5 Z"/></g>
<g><path style="opacity:0.655" fill="#c3ccd1" d="M 383.5,314.5 C 386.427,315.757 388.761,317.757 390.5,320.5C 387.573,319.243 385.239,317.243 383.5,314.5 Z"/></g>
<g><path style="opacity:0.188" fill="#d5dce3" d="M 343.5,315.5 C 344.89,316.899 345.89,318.566 346.5,320.5C 344.273,319.599 343.273,317.933 343.5,315.5 Z"/></g>
<g><path style="opacity:0.22" fill="#dbe1ea" d="M 748.5,316.5 C 750.833,316.833 752.167,318.167 752.5,320.5C 750.833,319.5 749.5,318.167 748.5,316.5 Z"/></g>
<g><path style="opacity:0.09" fill="#e1ebf1" d="M 348.5,322.5 C 349.833,322.5 350.5,323.167 350.5,324.5C 349.5,324.167 348.833,323.5 348.5,322.5 Z"/></g>
<g><path style="opacity:0.137" fill="#e0eaef" d="M 752.5,321.5 C 754.5,321.5 755.5,322.5 755.5,324.5C 754.167,323.833 753.167,322.833 752.5,321.5 Z"/></g>
<g><path style="opacity:0.071" fill="#cfd3da" d="M 350.5,324.5 C 351.833,324.5 352.5,325.167 352.5,326.5C 351.5,326.167 350.833,325.5 350.5,324.5 Z"/></g>
<g><path style="opacity:0.208" fill="#d7e0e6" d="M 755.5,325.5 C 757.5,325.5 758.5,326.5 758.5,328.5C 757.167,327.833 756.167,326.833 755.5,325.5 Z"/></g>
<g><path style="opacity:0.059" fill="#d9e0e5" d="M 355.5,328.5 C 358.764,330.094 361.431,332.427 363.5,335.5C 360.236,333.906 357.569,331.573 355.5,328.5 Z"/></g>
<g><path style="opacity:0.169" fill="#c4cdd5" d="M 390.5,320.5 C 394.436,322.766 397.769,325.766 400.5,329.5C 396.564,327.234 393.231,324.234 390.5,320.5 Z"/></g>
<g><path style="opacity:0.929" fill="#aab4b9" d="M 400.5,329.5 C 403.764,331.094 406.431,333.427 408.5,336.5C 405.236,334.906 402.569,332.573 400.5,329.5 Z"/></g>
<g><path style="opacity:0.071" fill="#cad1d8" d="M 758.5,329.5 C 759.833,329.5 760.5,330.167 760.5,331.5C 759.5,331.167 758.833,330.5 758.5,329.5 Z"/></g>
<g><path style="opacity:0.071" fill="#dbe2e7" d="M 761.5,333.5 C 762.833,333.5 763.5,334.167 763.5,335.5C 762.5,335.167 761.833,334.5 761.5,333.5 Z"/></g>
<g><path style="opacity:0.486" fill="#adb9bd" d="M 545.5,334.5 C 548.495,334.294 551.162,334.96 553.5,336.5C 550.572,336.435 547.905,335.768 545.5,334.5 Z"/></g>
<g><path style="opacity:0.137" fill="#c8d2d3" d="M 457.5,335.5 C 454.781,336.913 451.781,337.58 448.5,337.5C 451.219,336.087 454.219,335.42 457.5,335.5 Z"/></g>
<g><path style="opacity:0.247" fill="#cfd8df" d="M 763.5,335.5 C 764.906,335.973 765.573,336.973 765.5,338.5C 764.094,338.027 763.427,337.027 763.5,335.5 Z"/></g>
<g><path style="opacity:1" fill="#909ca5" d="M 561.5,338.5 C 567.077,338.803 572.077,340.47 576.5,343.5C 571.341,342.003 566.341,340.336 561.5,338.5 Z"/></g>
<g><path style="opacity:0.098" fill="#e5edf1" d="M 368.5,340.5 C 369.833,340.5 370.5,341.167 370.5,342.5C 369.5,342.167 368.833,341.5 368.5,340.5 Z"/></g>
<g><path style="opacity:0.227" fill="#bdc6cc" d="M 441.5,339.5 C 439.786,340.738 437.786,341.405 435.5,341.5C 437.102,339.926 439.102,339.259 441.5,339.5 Z"/></g>
<g><path style="opacity:0.059" fill="#cdd4d9" d="M 370.5,342.5 C 373.427,343.757 375.761,345.757 377.5,348.5C 374.573,347.243 372.239,345.243 370.5,342.5 Z"/></g>
<g><path style="opacity:0.239" fill="#c7ced2" d="M 435.5,341.5 C 433.786,342.738 431.786,343.405 429.5,343.5C 431.102,341.926 433.102,341.259 435.5,341.5 Z"/></g>
<g><path style="opacity:0.616" fill="#bac1ca" d="M 415.5,343.5 C 417.882,345.046 420.549,345.713 423.5,345.5C 420.282,347.184 417.615,346.517 415.5,343.5 Z"/></g>
<g><path style="opacity:0.196" fill="#d7dde4" d="M 767.5,341.5 C 768.906,341.973 769.573,342.973 769.5,344.5C 768.094,344.027 767.427,343.027 767.5,341.5 Z"/></g>
<g><path style="opacity:0.137" fill="#cfd8de" d="M 769.5,344.5 C 771.25,345.659 772.25,347.326 772.5,349.5C 770.75,348.341 769.75,346.674 769.5,344.5 Z"/></g>
<g><path style="opacity:0.239" fill="#c8d3dd" d="M 588.5,348.5 C 591.912,349.042 594.912,350.375 597.5,352.5C 594.088,351.958 591.088,350.625 588.5,348.5 Z"/></g>
<g><path style="opacity:0.071" fill="#dee7eb" d="M 380.5,351.5 C 384.436,353.766 387.769,356.766 390.5,360.5C 386.564,358.234 383.231,355.234 380.5,351.5 Z"/></g>
<g><path style="opacity:0.22" fill="#d2dce1" d="M 772.5,349.5 C 773.906,349.973 774.573,350.973 774.5,352.5C 773.094,352.027 772.427,351.027 772.5,349.5 Z"/></g>
<g><path style="opacity:0.129" fill="#c6d0d8" d="M 598.5,352.5 C 600.23,353.026 601.564,354.026 602.5,355.5C 600.368,355.446 599.035,354.446 598.5,352.5 Z"/></g>
<g><path style="opacity:0.149" fill="#d5dfe1" d="M 604.5,356.5 C 606.027,356.427 607.027,357.094 607.5,358.5C 605.973,358.573 604.973,357.906 604.5,356.5 Z"/></g>
<g><path style="opacity:0.267" fill="#c3cbd5" d="M 776.5,356.5 C 777.906,356.973 778.573,357.973 778.5,359.5C 777.094,359.027 776.427,358.027 776.5,356.5 Z"/></g>
<g><path style="opacity:0.247" fill="#ced7de" d="M 609.5,359.5 C 611.027,359.427 612.027,360.094 612.5,361.5C 610.973,361.573 609.973,360.906 609.5,359.5 Z"/></g>
<g><path style="opacity:0.584" fill="#b8c1c6" d="M 390.5,360.5 C 392.167,361.5 393.5,362.833 394.5,364.5C 392.167,364.167 390.833,362.833 390.5,360.5 Z"/></g>
<g><path style="opacity:0.137" fill="#d4dae2" d="M 779.5,361.5 C 781.25,362.659 782.25,364.326 782.5,366.5C 780.75,365.341 779.75,363.674 779.5,361.5 Z"/></g>
<g><path style="opacity:0.176" fill="#dbe3ea" d="M 615.5,363.5 C 617.027,363.427 618.027,364.094 618.5,365.5C 616.973,365.573 615.973,364.906 615.5,363.5 Z"/></g>
<g><path style="opacity:0.059" fill="#dbe4e8" d="M 396.5,366.5 C 400.167,368.167 402.833,370.833 404.5,374.5C 401.5,372.167 398.833,369.5 396.5,366.5 Z"/></g>
<g><path style="opacity:0.318" fill="#cbd7e1" d="M 618.5,365.5 C 620.027,365.427 621.027,366.094 621.5,367.5C 619.973,367.573 618.973,366.906 618.5,365.5 Z"/></g>
<g><path style="opacity:0.22" fill="#cfd9da" d="M 621.5,367.5 C 623.027,367.427 624.027,368.094 624.5,369.5C 622.973,369.573 621.973,368.906 621.5,367.5 Z"/></g>
<g><path style="opacity:0.059" fill="#d2d9df" d="M 626.5,370.5 C 627.5,370.833 628.167,371.5 628.5,372.5C 627.167,372.5 626.5,371.833 626.5,370.5 Z"/></g>
<g><path style="opacity:0.776" fill="#9aa3ae" d="M 628.5,372.5 C 630.404,372.738 631.738,373.738 632.5,375.5C 630.596,375.262 629.262,374.262 628.5,372.5 Z"/></g>
<g><path style="opacity:0.773" fill="#acb3bb" d="M 405.5,374.5 C 407.167,375.5 408.5,376.833 409.5,378.5C 407.167,378.167 405.833,376.833 405.5,374.5 Z"/></g>
<g><path style="opacity:0.09" fill="#e3ebf0" d="M 411.5,380.5 C 415.5,382.5 418.5,385.5 420.5,389.5C 417.167,386.833 414.167,383.833 411.5,380.5 Z"/></g>
<g><path style="opacity:0.176" fill="#ced6df" d="M 789.5,380.5 C 790.931,381.78 791.598,383.447 791.5,385.5C 790.069,384.22 789.402,382.553 789.5,380.5 Z"/></g>
<g><path style="opacity:0.071" fill="#b8bec5" d="M 421.5,390.5 C 423.833,390.833 425.167,392.167 425.5,394.5C 423.833,393.5 422.5,392.167 421.5,390.5 Z"/></g>
<g><path style="opacity:0.196" fill="#bec5cc" d="M 793.5,390.5 C 795.104,391.287 795.771,392.62 795.5,394.5C 794.326,393.486 793.66,392.153 793.5,390.5 Z"/></g>
<g><path style="opacity:0.059" fill="#cfd6da" d="M 430.5,398.5 C 433.764,400.094 436.431,402.427 438.5,405.5C 435.236,403.906 432.569,401.573 430.5,398.5 Z"/></g>
<g><path style="opacity:0.078" fill="#d2dae1" d="M 662.5,406.5 C 661.167,405.833 660.167,404.833 659.5,403.5C 659.435,403.062 659.601,402.728 660,402.5C 661.481,403.471 662.315,404.804 662.5,406.5 Z"/></g>
<g><path style="opacity:0.059" fill="#e1e8ed" d="M 440.5,407.5 C 444.167,409.167 446.833,411.833 448.5,415.5C 445.5,413.167 442.833,410.5 440.5,407.5 Z"/></g>
<g><path style="opacity:0.078" fill="#e3e9f1" d="M 662.5,406.5 C 664.262,407.262 665.262,408.596 665.5,410.5C 663.738,409.738 662.738,408.404 662.5,406.5 Z"/></g>
<g><path style="opacity:0.09" fill="#b8bec9" d="M 665.5,410.5 C 667.446,411.035 668.446,412.368 668.5,414.5C 667.026,413.564 666.026,412.23 665.5,410.5 Z"/></g>
<g><path style="opacity:0.91" fill="#99a2ad" d="M 801.5,409.5 C 802.738,411.214 803.405,413.214 803.5,415.5C 801.926,413.898 801.259,411.898 801.5,409.5 Z"/></g>
<g><path style="opacity:1" fill="#7a8186" d="M 668.5,414.5 C 669.766,415.09 671.099,415.59 672.5,416C 671.316,417.145 671.316,418.312 672.5,419.5C 670.613,418.344 669.279,416.677 668.5,414.5 Z"/></g>
<g><path style="opacity:0.863" fill="#a5afb6" d="M 803.5,415.5 C 804.738,417.214 805.405,419.214 805.5,421.5C 803.926,419.898 803.259,417.898 803.5,415.5 Z"/></g>
<g><path style="opacity:0.059" fill="#cbd1d7" d="M 455.5,421.5 C 459.1,423.43 462.1,426.097 464.5,429.5C 460.9,427.57 457.9,424.903 455.5,421.5 Z"/></g>
<g><path style="opacity:0.149" fill="#d4dfe6" d="M 673.5,422.5 C 674.906,422.973 675.573,423.973 675.5,425.5C 674.094,425.027 673.427,424.027 673.5,422.5 Z"/></g>
<g><path style="opacity:1" fill="#9da6ac" d="M 805.5,421.5 C 807.101,424.55 808.101,427.884 808.5,431.5C 806.32,428.619 805.32,425.286 805.5,421.5 Z"/></g>
<g><path style="opacity:1" fill="#283041" d="M 348.5,299.5 C 348.5,299.833 348.5,300.167 348.5,300.5C 346.167,300.833 344.833,302.167 344.5,304.5C 342.969,308.202 342.636,311.869 343.5,315.5C 343.273,317.933 344.273,319.599 346.5,320.5C 347.5,320.833 348.167,321.5 348.5,322.5C 348.833,323.5 349.5,324.167 350.5,324.5C 350.833,325.5 351.5,326.167 352.5,326.5C 354.027,326.427 355.027,327.094 355.5,328.5C 357.569,331.573 360.236,333.906 363.5,335.5C 365.5,336.833 367.167,338.5 368.5,340.5C 368.833,341.5 369.5,342.167 370.5,342.5C 372.239,345.243 374.573,347.243 377.5,348.5C 378.5,349.5 379.5,350.5 380.5,351.5C 383.231,355.234 386.564,358.234 390.5,360.5C 390.833,362.833 392.167,364.167 394.5,364.5C 395.5,364.833 396.167,365.5 396.5,366.5C 398.833,369.5 401.5,372.167 404.5,374.5C 404.833,374.5 405.167,374.5 405.5,374.5C 405.833,376.833 407.167,378.167 409.5,378.5C 410.5,378.833 411.167,379.5 411.5,380.5C 414.167,383.833 417.167,386.833 420.5,389.5C 421.167,389.5 421.5,389.833 421.5,390.5C 422.5,392.167 423.833,393.5 425.5,394.5C 427.461,395.46 429.127,396.793 430.5,398.5C 432.569,401.573 435.236,403.906 438.5,405.5C 439.5,405.833 440.167,406.5 440.5,407.5C 442.833,410.5 445.5,413.167 448.5,415.5C 451.447,416.781 453.781,418.781 455.5,421.5C 457.9,424.903 460.9,427.57 464.5,429.5C 465.694,430.272 466.694,431.272 467.5,432.5C 468.167,433.833 469.167,434.833 470.5,435.5C 471.5,437.167 472.833,438.5 474.5,439.5C 477.843,441.183 480.509,443.517 482.5,446.5C 484.239,449.243 486.573,451.243 489.5,452.5C 491.833,453.5 493.5,455.167 494.5,457.5C 495.167,458.833 496.167,459.833 497.5,460.5C 501.146,462.482 504.146,465.149 506.5,468.5C 508.5,471.167 510.833,473.5 513.5,475.5C 516.108,477.103 518.441,479.103 520.5,481.5C 521.5,483.167 522.833,484.5 524.5,485.5C 525.911,487.914 527.911,489.581 530.5,490.5C 532.167,491.5 533.5,492.833 534.5,494.5C 536.569,497.573 539.236,499.906 542.5,501.5C 544.167,502.5 545.5,503.833 546.5,505.5C 548.569,508.573 551.236,510.906 554.5,512.5C 556.5,513.833 558.167,515.5 559.5,517.5C 561.5,520.167 563.833,522.5 566.5,524.5C 567.872,525.512 569.205,526.512 570.5,527.5C 572.5,530.167 574.833,532.5 577.5,534.5C 580.447,535.781 582.781,537.781 584.5,540.5C 586.9,543.903 589.9,546.57 593.5,548.5C 594.833,549.167 595.833,550.167 596.5,551.5C 597.833,553.5 599.5,555.167 601.5,556.5C 602.167,556.5 602.5,556.833 602.5,557.5C 603.911,559.914 605.911,561.581 608.5,562.5C 609.5,562.833 610.167,563.5 610.5,564.5C 610.833,565.5 611.5,566.167 612.5,566.5C 613.833,566.5 614.5,567.167 614.5,568.5C 615.833,570.5 617.5,572.167 619.5,573.5C 622.447,574.781 624.781,576.781 626.5,579.5C 629.167,582.833 632.167,585.833 635.5,588.5C 637.749,589.08 639.415,590.413 640.5,592.5C 642.833,595.5 645.5,598.167 648.5,600.5C 649.167,601.833 650.167,602.833 651.5,603.5C 651.833,603.5 652.167,603.5 652.5,603.5C 652.5,605.5 653.5,606.5 655.5,606.5C 657.833,609.5 660.5,612.167 663.5,614.5C 668.152,617.486 672.152,621.153 675.5,625.5C 676.287,627.104 677.62,627.771 679.5,627.5C 681.711,626.877 683.711,625.877 685.5,624.5C 685.577,625.75 686.244,626.583 687.5,627C 687.342,630.288 687.342,633.788 687.5,637.5C 678.758,637.491 670.091,636.657 661.5,635C 652.806,626.979 645.64,617.813 640,607.5C 636.133,603.154 631.633,599.654 626.5,597C 620.216,591.408 614.882,585.074 610.5,578C 599.506,572.505 588.84,566.505 578.5,560C 579.624,559.751 580.624,559.251 581.5,558.5C 576.417,554.803 574.417,549.803 575.5,543.5C 569.197,544.583 564.197,542.583 560.5,537.5C 559.702,539.078 559.202,540.744 559,542.5C 554.339,536.839 549.339,531.506 544,526.5C 543.503,524.19 543.337,521.857 543.5,519.5C 537.167,520.5 534.5,517.833 535.5,511.5C 529.308,512.481 526.641,509.814 527.5,503.5C 522.032,503.267 517.032,501.601 512.5,498.5C 511.614,497.675 511.281,496.675 511.5,495.5C 506.049,495.466 503.382,492.8 503.5,487.5C 500.833,487.5 498.167,487.5 495.5,487.5C 495.5,484.833 495.5,482.167 495.5,479.5C 492.833,479.5 490.167,479.5 487.5,479.5C 487.5,476.833 487.5,474.167 487.5,471.5C 484.833,471.5 482.167,471.5 479.5,471.5C 479.5,470.5 479.5,469.5 479.5,468.5C 476.833,468.5 474.167,468.5 471.5,468.5C 471.657,469.873 471.49,471.207 471,472.5C 468.167,469.667 465.333,466.833 462.5,464C 463.473,458.593 463.807,453.093 463.5,447.5C 458.167,447.5 452.833,447.5 447.5,447.5C 447.5,440.833 447.5,434.167 447.5,427.5C 442.456,427.827 437.456,427.494 432.5,426.5C 431.574,422.906 431.241,419.24 431.5,415.5C 424.5,417.167 421.833,414.5 423.5,407.5C 422.167,407.5 420.833,407.5 419.5,407.5C 419.5,404.833 419.5,402.167 419.5,399.5C 418.167,399.5 416.833,399.5 415.5,399.5C 415.5,398.5 415.5,397.5 415.5,396.5C 409.732,396.975 407.065,394.308 407.5,388.5C 397.525,388.505 389.525,384.505 383.5,376.5C 386.777,375.521 387.11,374.187 384.5,372.5C 383.548,370.955 383.215,369.288 383.5,367.5C 380.592,367.738 378.258,366.738 376.5,364.5C 375.833,365.5 375.167,366.5 374.5,367.5C 372.5,365.5 370.5,363.5 368.5,361.5C 367.513,358.232 367.18,354.898 367.5,351.5C 356.018,352.185 350.851,346.852 352,335.5C 355.41,334.126 355.243,333.459 351.5,333.5C 351.5,331.5 351.5,329.5 351.5,327.5C 349.5,327.5 347.5,327.5 345.5,327.5C 345.799,325.396 345.466,323.396 344.5,321.5C 342.509,319.389 340.509,318.056 338.5,317.5C 339.428,316.232 339.595,314.899 339,313.5C 338.444,315.595 337.944,315.762 337.5,314C 338.758,311.815 338.758,309.648 337.5,307.5C 337.846,306.304 338.346,306.304 339,307.5C 339.226,304.905 339.726,302.405 340.5,300C 341.854,298.706 343.188,298.54 344.5,299.5C 345.192,298.975 345.692,298.308 346,297.5C 346.708,298.381 347.542,299.047 348.5,299.5 Z"/></g>
<g><path style="opacity:0.196" fill="#ced7df" d="M 676.5,427.5 C 677.906,427.973 678.573,428.973 678.5,430.5C 677.094,430.027 676.427,429.027 676.5,427.5 Z"/></g>
<g><path style="opacity:0.078" fill="#e2e6ed" d="M 467.5,432.5 C 469.5,432.5 470.5,433.5 470.5,435.5C 469.167,434.833 468.167,433.833 467.5,432.5 Z"/></g>
<g><path style="opacity:0.098" fill="#c1c8cf" d="M 470.5,435.5 C 472.833,435.833 474.167,437.167 474.5,439.5C 472.833,438.5 471.5,437.167 470.5,435.5 Z"/></g>
<g><path style="opacity:1" fill="#8b929c" d="M 808.5,432.5 C 809.866,435.089 810.866,437.922 811.5,441C 811.43,441.765 811.097,442.265 810.5,442.5C 809.213,439.302 808.547,435.969 808.5,432.5 Z"/></g>
<g><path style="opacity:0.239" fill="#cbd4db" d="M 681.5,436.5 C 683.873,438.579 685.206,441.246 685.5,444.5C 683.659,442.151 682.326,439.485 681.5,436.5 Z"/></g>
<g><path style="opacity:0.345" fill="#cdd0da" d="M 310.5,440.5 C 312.404,440.738 313.738,441.738 314.5,443.5C 312.596,443.262 311.262,442.262 310.5,440.5 Z"/></g>
<g><path style="opacity:0.071" fill="#dfe8ee" d="M 314.5,443.5 C 316.5,444.833 318.167,446.5 319.5,448.5C 316.833,447.833 315.167,446.167 314.5,443.5 Z"/></g>
<g><path style="opacity:0.051" fill="#c6cdd2" d="M 482.5,446.5 C 485.427,447.757 487.761,449.757 489.5,452.5C 486.573,451.243 484.239,449.243 482.5,446.5 Z"/></g>
<g><path style="opacity:0.396" fill="#bfc9cd" d="M 685.5,444.5 C 687.104,445.287 687.771,446.62 687.5,448.5C 686.326,447.486 685.66,446.153 685.5,444.5 Z"/></g>
<g><path style="opacity:0.969" fill="#99a4ab" d="M 812.5,448.5 C 813.38,450.137 814.046,451.97 814.5,454C 814.43,454.765 814.097,455.265 813.5,455.5C 812.781,453.236 812.448,450.903 812.5,448.5 Z"/></g>
<g><path style="opacity:1" fill="#646c77" d="M 689.5,452.5 C 690.481,454.309 691.981,455.643 694,456.5C 694.18,458.488 694.014,460.488 693.5,462.5C 691.597,459.47 690.263,456.137 689.5,452.5 Z"/></g>
<g><path style="opacity:0.051" fill="#e5eaee" d="M 494.5,457.5 C 496.5,457.5 497.5,458.5 497.5,460.5C 496.167,459.833 495.167,458.833 494.5,457.5 Z"/></g>
<g><path style="opacity:1" fill="#4c5660" d="M 188.5,239.5 C 188.073,431.67 188.739,623.67 190.5,815.5C 189.063,833.141 188.063,850.808 187.5,868.5C 187.302,648.574 187.302,428.574 187.5,208.5C 188.499,218.083 188.832,228.417 188.5,239.5 Z"/></g>
<g><path style="opacity:0.208" fill="#c9d2da" d="M 325.5,454.5 C 330.105,457.436 334.105,461.102 337.5,465.5C 332.895,462.564 328.895,458.898 325.5,454.5 Z"/></g>
<g><path style="opacity:0.584" fill="#acb7bc" d="M 814.5,457.5 C 815.913,460.219 816.58,463.219 816.5,466.5C 815.087,463.781 814.42,460.781 814.5,457.5 Z"/></g>
<g><path style="opacity:0.11" fill="#d8e0e4" d="M 506.5,468.5 C 509.833,469.833 512.167,472.167 513.5,475.5C 510.833,473.5 508.5,471.167 506.5,468.5 Z"/></g>
<g><path style="opacity:0.851" fill="#b7bec6" d="M 342.5,470.5 C 346.436,472.766 349.769,475.766 352.5,479.5C 348.564,477.234 345.231,474.234 342.5,470.5 Z"/></g>
<g><path style="opacity:0.129" fill="#c1cacf" d="M 695.5,468.5 C 696.924,470.515 697.59,472.848 697.5,475.5C 696.076,473.485 695.41,471.152 695.5,468.5 Z"/></g>
<g><path style="opacity:0.773" fill="#9aa3ac" d="M 697.5,475.5 C 699.568,478.763 700.568,482.43 700.5,486.5C 699.055,483.063 698.055,479.397 697.5,475.5 Z"/></g>
<g><path style="opacity:0.11" fill="#e1ecef" d="M 353.5,480.5 C 354.5,480.833 355.167,481.5 355.5,482.5C 354.167,482.5 353.5,481.833 353.5,480.5 Z"/></g>
<g><path style="opacity:0.059" fill="#e4ecef" d="M 520.5,481.5 C 522.833,481.833 524.167,483.167 524.5,485.5C 522.833,484.5 521.5,483.167 520.5,481.5 Z"/></g>
<g><path style="opacity:0.804" fill="#b4bcc5" d="M 358.5,485.5 C 362.436,487.766 365.769,490.766 368.5,494.5C 364.564,492.234 361.231,489.234 358.5,485.5 Z"/></g>
<g><path style="opacity:0.059" fill="#c8d0d3" d="M 524.5,485.5 C 527.089,486.419 529.089,488.086 530.5,490.5C 527.911,489.581 525.911,487.914 524.5,485.5 Z"/></g>
<g><path style="opacity:0.682" fill="#9ba9ac" d="M 701.5,487.5 C 702.219,489.764 702.552,492.097 702.5,494.5C 701.62,492.863 700.954,491.03 700.5,489C 700.57,488.235 700.903,487.735 701.5,487.5 Z"/></g>
<g><path style="opacity:0.078" fill="#d3dbe0" d="M 534.5,494.5 C 537.764,496.094 540.431,498.427 542.5,501.5C 539.236,499.906 536.569,497.573 534.5,494.5 Z"/></g>
<g><path style="opacity:0.078" fill="#d1dde2" d="M 368.5,494.5 C 369.5,494.833 370.167,495.5 370.5,496.5C 369.167,496.5 368.5,495.833 368.5,494.5 Z"/></g>
<g><path style="opacity:0.149" fill="#e5f0f6" d="M 370.5,496.5 C 371.833,497.167 372.833,498.167 373.5,499.5C 371.5,499.5 370.5,498.5 370.5,496.5 Z"/></g>
<g><path style="opacity:0.882" fill="#b4bec7" d="M 373.5,499.5 C 379.776,504.107 385.443,509.441 390.5,515.5C 384.224,510.893 378.557,505.559 373.5,499.5 Z"/></g>
<g><path style="opacity:0.475" fill="#a8b3bb" d="M 702.5,495.5 C 705.145,502.018 705.812,508.684 704.5,515.5C 704.27,508.786 703.603,502.12 702.5,495.5 Z"/></g>
<g><path style="opacity:0.051" fill="#dfe3eb" d="M 546.5,505.5 C 549.764,507.094 552.431,509.427 554.5,512.5C 551.236,510.906 548.569,508.573 546.5,505.5 Z"/></g>
<g><path style="opacity:0.051" fill="#d0d6da" d="M 559.5,517.5 C 562.833,518.833 565.167,521.167 566.5,524.5C 563.833,522.5 561.5,520.167 559.5,517.5 Z"/></g>
<g><path style="opacity:0.149" fill="#c1ccd1" d="M 397.5,521.5 C 400.167,523.5 402.5,525.833 404.5,528.5C 401.167,527.167 398.833,524.833 397.5,521.5 Z"/></g>
<g><path style="opacity:0.059" fill="#dae1e7" d="M 570.5,527.5 C 573.833,528.833 576.167,531.167 577.5,534.5C 574.833,532.5 572.5,530.167 570.5,527.5 Z"/></g>
<g><path style="opacity:0.118" fill="#dee7ef" d="M 404.5,528.5 C 405.5,528.833 406.167,529.5 406.5,530.5C 405.167,530.5 404.5,529.833 404.5,528.5 Z"/></g>
<g><path style="opacity:1" fill="#232c3a" d="M 188.5,239.5 C 189.327,244.651 189.827,249.984 190,255.5C 190.106,442.177 190.273,628.844 190.5,815.5C 188.739,623.67 188.073,431.67 188.5,239.5 Z"/></g>
<g><path style="opacity:0.655" fill="#c7d2d8" d="M 414.5,538.5 C 418.1,540.43 421.1,543.097 423.5,546.5C 419.9,544.57 416.9,541.903 414.5,538.5 Z"/></g>
<g><path style="opacity:0.059" fill="#ccd4d8" d="M 584.5,540.5 C 588.1,542.43 591.1,545.097 593.5,548.5C 589.9,546.57 586.9,543.903 584.5,540.5 Z"/></g>
<g><path style="opacity:0.069" fill="#edf4f8" d="M 596.5,551.5 C 599.167,552.167 600.833,553.833 601.5,556.5C 599.5,555.167 597.833,553.5 596.5,551.5 Z"/></g>
<g><path style="opacity:0.118" fill="#d0dade" d="M 430.5,552.5 C 433.167,554.5 435.5,556.833 437.5,559.5C 434.167,558.167 431.833,555.833 430.5,552.5 Z"/></g>
<g><path style="opacity:0.059" fill="#c0c8ce" d="M 602.5,557.5 C 605.089,558.419 607.089,560.086 608.5,562.5C 605.911,561.581 603.911,559.914 602.5,557.5 Z"/></g>
<g><path style="opacity:0.071" fill="#eff8fb" d="M 610.5,564.5 C 611.833,564.5 612.5,565.167 612.5,566.5C 611.5,566.167 610.833,565.5 610.5,564.5 Z"/></g>
<g><path style="opacity:0.941" fill="#96a2ae" d="M 705.5,556.5 C 705.665,559.85 705.498,563.183 705,566.5C 704.768,567.737 704.268,568.737 703.5,569.5C 703.884,564.99 704.551,560.657 705.5,556.5 Z"/></g>
<g><path style="opacity:0.059" fill="#d9e0e5" d="M 614.5,568.5 C 617.167,569.167 618.833,570.833 619.5,573.5C 617.5,572.167 615.833,570.5 614.5,568.5 Z"/></g>
<g><path style="opacity:0.396" fill="#c9d2d8" d="M 442.5,564.5 C 447.44,567.77 451.773,571.77 455.5,576.5C 450.56,573.23 446.227,569.23 442.5,564.5 Z"/></g>
<g><path style="opacity:0.863" fill="#bbc5cc" d="M 457.5,578.5 C 463.108,582.439 468.108,587.106 472.5,592.5C 466.892,588.561 461.892,583.894 457.5,578.5 Z"/></g>
<g><path style="opacity:0.129" fill="#dae1e9" d="M 626.5,579.5 C 630.5,581.5 633.5,584.5 635.5,588.5C 632.167,585.833 629.167,582.833 626.5,579.5 Z"/></g>
<g><path style="opacity:0.949" fill="#919da3" d="M 702.5,577.5 C 702.552,579.903 702.219,582.236 701.5,584.5C 700.903,584.265 700.57,583.765 700.5,583C 700.954,580.97 701.62,579.137 702.5,577.5 Z"/></g>
<g><path style="opacity:0.922" fill="#a1a9b3" d="M 700.5,585.5 C 700.68,589.286 699.68,592.619 697.5,595.5C 698.13,591.952 699.13,588.619 700.5,585.5 Z"/></g>
<g><path style="opacity:0.098" fill="#e1e8ec" d="M 640.5,592.5 C 644.167,594.167 646.833,596.833 648.5,600.5C 645.5,598.167 642.833,595.5 640.5,592.5 Z"/></g>
<g><path style="opacity:0.129" fill="#bcc3cb" d="M 648.5,600.5 C 650.5,600.5 651.5,601.5 651.5,603.5C 650.167,602.833 649.167,601.833 648.5,600.5 Z"/></g>
<g><path style="opacity:0.376" fill="#cbd4d9" d="M 475.5,595.5 C 480.105,598.436 484.105,602.102 487.5,606.5C 482.895,603.564 478.895,599.898 475.5,595.5 Z"/></g>
<g><path style="opacity:0.357" fill="#c6cfd6" d="M 820.5,595.5 C 821.139,596.097 821.472,596.93 821.5,598C 821.028,601.677 820.362,605.177 819.5,608.5C 819.467,604.131 819.8,599.798 820.5,595.5 Z"/></g>
<g><path style="opacity:0.773" fill="#a7aeb7" d="M 652.5,603.5 C 653.833,604.167 654.833,605.167 655.5,606.5C 653.5,606.5 652.5,605.5 652.5,603.5 Z"/></g>
<g><path style="opacity:0.078" fill="#dfe5ea" d="M 655.5,606.5 C 659.167,608.167 661.833,610.833 663.5,614.5C 660.5,612.167 657.833,609.5 655.5,606.5 Z"/></g>
<g><path style="opacity:0.863" fill="#a5b0b7" d="M 489.5,608.5 C 492.427,609.757 494.761,611.757 496.5,614.5C 493.573,613.243 491.239,611.243 489.5,608.5 Z"/></g>
<g><path style="opacity:0.525" fill="#c8d1d8" d="M 496.5,615.5 C 498.749,616.08 500.415,617.413 501.5,619.5C 499.251,618.92 497.585,617.587 496.5,615.5 Z"/></g>
<g><path style="opacity:0.929" fill="#959dab" d="M 503.5,621.5 C 506.089,622.419 508.089,624.086 509.5,626.5C 506.911,625.581 504.911,623.914 503.5,621.5 Z"/></g>
<g><path style="opacity:0.376" fill="#bec3c7" d="M 687.5,620.5 C 687.771,622.38 687.104,623.713 685.5,624.5C 685.66,622.847 686.326,621.514 687.5,620.5 Z"/></g>
<g><path style="opacity:0.137" fill="#d9e0e2" d="M 675.5,625.5 C 677.153,625.66 678.486,626.326 679.5,627.5C 677.62,627.771 676.287,627.104 675.5,625.5 Z"/></g>
<g><path style="opacity:0.694" fill="#bac2ca" d="M 509.5,627.5 C 512.427,628.757 514.761,630.757 516.5,633.5C 513.573,632.243 511.239,630.243 509.5,627.5 Z"/></g>
<g><path style="opacity:0.239" fill="#c4c9cc" d="M 817.5,621.5 C 817.451,625.078 816.785,628.411 815.5,631.5C 815.322,627.878 815.989,624.544 817.5,621.5 Z"/></g>
<g><path style="opacity:0.059" fill="#cfd6db" d="M 516.5,633.5 C 517.5,633.833 518.167,634.5 518.5,635.5C 517.167,635.5 516.5,634.833 516.5,633.5 Z"/></g>
<g><path style="opacity:0.643" fill="#cad4d9" d="M 526.5,643.5 C 531.44,646.77 535.773,650.77 539.5,655.5C 534.56,652.23 530.227,648.23 526.5,643.5 Z"/></g>
<g><path style="opacity:1" fill="#757f87" d="M 808.5,659.5 C 808.101,663.116 807.101,666.45 805.5,669.5C 806.127,666.911 806.127,664.411 805.5,662C 806.622,661.853 807.622,661.019 808.5,659.5 Z"/></g>
<g><path style="opacity:0.357" fill="#cfd8de" d="M 543.5,659.5 C 548.44,662.77 552.773,666.77 556.5,671.5C 551.56,668.23 547.227,664.23 543.5,659.5 Z"/></g>
<g><path style="opacity:0.409" fill="#b3bdca" d="M 339.5,673.5 C 337.513,691.47 336.846,709.803 337.5,728.5C 336.503,710.007 336.17,691.341 336.5,672.5C 337.791,672.263 338.791,672.596 339.5,673.5 Z"/></g>
<g><path style="opacity:0.804" fill="#acb2b9" d="M 343.5,677.5 C 346.243,679.239 348.243,681.573 349.5,684.5C 346.757,682.761 344.757,680.427 343.5,677.5 Z"/></g>
<g><path style="opacity:0.169" fill="#cdd5da" d="M 804.5,672.5 C 803.63,677.223 801.964,681.556 799.5,685.5C 800.301,681.765 801.301,678.099 802.5,674.5C 803.167,673.833 803.833,673.167 804.5,672.5 Z"/></g>
<g><path style="opacity:0.176" fill="#ced7dd" d="M 559.5,674.5 C 564.105,677.436 568.105,681.102 571.5,685.5C 566.895,682.564 562.895,678.898 559.5,674.5 Z"/></g>
<g><path style="opacity:0.118" fill="#ccd1d7" d="M 349.5,684.5 C 350.833,684.5 351.5,685.167 351.5,686.5C 350.5,686.167 349.833,685.5 349.5,684.5 Z"/></g>
<g><path style="opacity:0.149" fill="#c2c8cf" d="M 351.5,686.5 C 353.749,687.08 355.415,688.413 356.5,690.5C 354.251,689.92 352.585,688.587 351.5,686.5 Z"/></g>
<g><path style="opacity:0.169" fill="#dde5e7" d="M 799.5,685.5 C 799.598,687.553 798.931,689.22 797.5,690.5C 797.402,688.447 798.069,686.78 799.5,685.5 Z"/></g>
<g><path style="opacity:0.051" fill="#dee4e7" d="M 358.5,692.5 C 360.749,693.08 362.415,694.413 363.5,696.5C 361.251,695.92 359.585,694.587 358.5,692.5 Z"/></g>
<g><path style="opacity:0.306" fill="#d1dae0" d="M 575.5,688.5 C 579.5,691.833 583.167,695.5 586.5,699.5C 581.833,696.833 578.167,693.167 575.5,688.5 Z"/></g>
<g><path style="opacity:0.059" fill="#d8dee1" d="M 364.5,697.5 C 366.833,697.833 368.167,699.167 368.5,701.5C 366.833,700.5 365.5,699.167 364.5,697.5 Z"/></g>
<g><path style="opacity:0.09" fill="#d7e0e5" d="M 793.5,698.5 C 793.715,700.179 793.048,701.179 791.5,701.5C 791.932,700.29 792.599,699.29 793.5,698.5 Z"/></g>
<g><path style="opacity:0.059" fill="#e3e9ed" d="M 373.5,704.5 C 375.027,704.427 376.027,705.094 376.5,706.5C 374.973,706.573 373.973,705.906 373.5,704.5 Z"/></g>
<g><path style="opacity:0.655" fill="#c9d1d7" d="M 592.5,705.5 C 596.1,707.43 599.1,710.097 601.5,713.5C 597.9,711.57 594.9,708.903 592.5,705.5 Z"/></g>
<g><path style="opacity:0.071" fill="#d3dadf" d="M 377.5,707.5 C 379.027,707.427 380.027,708.094 380.5,709.5C 378.973,709.573 377.973,708.906 377.5,707.5 Z"/></g>
<g><path style="opacity:0.059" fill="#d9e1e6" d="M 380.5,709.5 C 382.027,709.427 383.027,710.094 383.5,711.5C 381.973,711.573 380.973,710.906 380.5,709.5 Z"/></g>
<g><path style="opacity:0.208" fill="#d0d8df" d="M 788.5,708.5 C 788.34,710.153 787.674,711.486 786.5,712.5C 786.229,710.62 786.896,709.287 788.5,708.5 Z"/></g>
<g><path style="opacity:0.078" fill="#dfe6eb" d="M 383.5,711.5 C 385.027,711.427 386.027,712.094 386.5,713.5C 384.973,713.573 383.973,712.906 383.5,711.5 Z"/></g>
<g><path style="opacity:0.051" fill="#e3e8eb" d="M 786.5,712.5 C 786.5,713.833 785.833,714.5 784.5,714.5C 784.833,713.5 785.5,712.833 786.5,712.5 Z"/></g>
<g><path style="opacity:1" fill="#969ea7" d="M 386.5,713.5 C 389.511,714.669 392.178,716.336 394.5,718.5C 390.814,718.33 388.147,716.664 386.5,713.5 Z"/></g>
<g><path style="opacity:0.89" fill="#b4bec6" d="M 606.5,718.5 C 610.436,720.766 613.769,723.766 616.5,727.5C 612.564,725.234 609.231,722.234 606.5,718.5 Z"/></g>
<g><path style="opacity:0.09" fill="#e6f0f7" d="M 783.5,717.5 C 783.573,719.027 782.906,720.027 781.5,720.5C 781.427,718.973 782.094,717.973 783.5,717.5 Z"/></g>
<g><path style="opacity:1" fill="#1e2a36" d="M 306.5,442.5 C 305.833,582.667 305.167,723.001 304.5,863.5C 304.773,722.887 304.439,582.22 303.5,441.5C 304.791,441.263 305.791,441.596 306.5,442.5 Z"/></g>
<g><path style="opacity:1" fill="#242f42" d="M 339.5,673.5 C 341.167,674.5 342.5,675.833 343.5,677.5C 344.757,680.427 346.757,682.761 349.5,684.5C 349.833,685.5 350.5,686.167 351.5,686.5C 352.585,688.587 354.251,689.92 356.5,690.5C 357.5,690.833 358.167,691.5 358.5,692.5C 359.585,694.587 361.251,695.92 363.5,696.5C 364.167,696.5 364.5,696.833 364.5,697.5C 365.5,699.167 366.833,700.5 368.5,701.5C 370.42,702.065 372.087,703.065 373.5,704.5C 373.973,705.906 374.973,706.573 376.5,706.5C 377.167,706.5 377.5,706.833 377.5,707.5C 377.973,708.906 378.973,709.573 380.5,709.5C 380.973,710.906 381.973,711.573 383.5,711.5C 383.973,712.906 384.973,713.573 386.5,713.5C 388.147,716.664 390.814,718.33 394.5,718.5C 395.492,718.328 396.158,718.662 396.5,719.5C 396.973,720.906 397.973,721.573 399.5,721.5C 400.833,722.167 402.167,722.833 403.5,723.5C 408.247,727.207 413.581,729.874 419.5,731.5C 420.791,732.473 420.791,733.473 419.5,734.5C 422.768,735.487 426.102,735.82 429.5,735.5C 430.78,736.931 432.447,737.598 434.5,737.5C 437.505,739.277 440.838,740.277 444.5,740.5C 448.163,742.416 452.163,743.416 456.5,743.5C 459.044,743.104 461.211,743.771 463,745.5C 465.075,744.105 466.908,744.438 468.5,746.5C 469.446,746.013 470.446,745.68 471.5,745.5C 475.002,746.011 478.335,746.678 481.5,747.5C 488.737,748.679 496.071,750.012 503.5,751.5C 522.197,750.072 540.864,748.739 559.5,747.5C 559.5,746.167 559.5,744.833 559.5,743.5C 565.335,743.876 571.002,743.21 576.5,741.5C 575.612,744.054 575.279,746.721 575.5,749.5C 559.5,750.167 559.5,750.833 575.5,751.5C 575.5,754.167 575.5,756.833 575.5,759.5C 578.167,759.5 580.833,759.5 583.5,759.5C 583.5,761.167 583.5,762.833 583.5,764.5C 586.167,764.5 588.833,764.5 591.5,764.5C 591.5,765.5 591.5,766.5 591.5,767.5C 594.167,767.5 596.833,767.5 599.5,767.5C 599.5,769.167 599.5,770.833 599.5,772.5C 602.167,772.5 604.833,772.5 607.5,772.5C 607.5,776.167 607.5,779.833 607.5,783.5C 610.167,783.5 612.833,783.5 615.5,783.5C 615.5,786.167 615.5,788.833 615.5,791.5C 618.167,791.5 620.833,791.5 623.5,791.5C 622.833,797.5 625.5,800.167 631.5,799.5C 631.5,802.167 631.5,804.833 631.5,807.5C 634.167,807.5 636.833,807.5 639.5,807.5C 639.5,810.167 639.5,812.833 639.5,815.5C 642.167,815.5 644.833,815.5 647.5,815.5C 647.5,823.5 647.5,831.5 647.5,839.5C 646.022,839.238 644.689,839.571 643.5,840.5C 644.025,841.192 644.692,841.692 645.5,842C 642.944,843.055 641.277,844.888 640.5,847.5C 633.062,850.901 625.395,853.901 617.5,856.5C 614.848,856.41 612.515,857.076 610.5,858.5C 608.214,858.595 606.214,859.262 604.5,860.5C 602.401,861.612 600.067,862.279 597.5,862.5C 594.572,862.565 591.905,863.232 589.5,864.5C 551.721,874.398 513.388,877.064 474.5,872.5C 458.46,872.437 442.794,870.104 427.5,865.5C 425.095,864.232 422.428,863.565 419.5,863.5C 417.562,861.837 415.228,861.171 412.5,861.5C 412.167,861.5 411.833,861.5 411.5,861.5C 408.916,859.528 405.916,858.528 402.5,858.5C 401.209,858.737 400.209,858.404 399.5,857.5C 398.01,855.72 396.01,855.054 393.5,855.5C 391.597,855.204 389.93,854.537 388.5,853.5C 387.22,852.069 385.553,851.402 383.5,851.5C 383.167,851.5 382.833,851.5 382.5,851.5C 382.027,850.094 381.027,849.427 379.5,849.5C 378.508,849.672 377.842,849.338 377.5,848.5C 375.898,846.926 373.898,846.259 371.5,846.5C 369.574,844.707 367.241,843.707 364.5,843.5C 364.158,842.662 363.492,842.328 362.5,842.5C 361.847,841.193 361.18,839.86 360.5,838.5C 356.561,836.646 351.894,834.979 346.5,833.5C 344.447,833.598 342.78,832.931 341.5,831.5C 341.027,830.094 340.027,829.427 338.5,829.5C 337.778,829.082 337.278,828.416 337,827.5C 336.833,821.333 336.667,815.167 336.5,809C 337.301,782.172 337.634,755.339 337.5,728.5C 336.846,709.803 337.513,691.47 339.5,673.5 Z"/></g>
<g><path style="opacity:0.157" fill="#d0d9e4" d="M 396.5,719.5 C 398.027,719.427 399.027,720.094 399.5,721.5C 397.973,721.573 396.973,720.906 396.5,719.5 Z"/></g>
<g><path style="opacity:0.11" fill="#dde5ed" d="M 778.5,725.5 C 778.5,726.833 777.833,727.5 776.5,727.5C 776.833,726.5 777.5,725.833 778.5,725.5 Z"/></g>
<g><path style="opacity:0.259" fill="#bfc8cc" d="M 403.5,723.5 C 409.151,725.659 414.484,728.326 419.5,731.5C 413.581,729.874 408.247,727.207 403.5,723.5 Z"/></g>
<g><path style="opacity:0.11" fill="#dbe5ec" d="M 616.5,727.5 C 618.167,728.5 619.5,729.833 620.5,731.5C 618.167,731.167 616.833,729.833 616.5,727.5 Z"/></g>
<g><path style="opacity:0.059" fill="#d9e0e4" d="M 776.5,728.5 C 776.5,729.833 775.833,730.5 774.5,730.5C 774.833,729.5 775.5,728.833 776.5,728.5 Z"/></g>
<g><path style="opacity:0.902" fill="#95a0ab" d="M 622.5,733.5 C 624.749,734.08 626.415,735.413 627.5,737.5C 625.251,736.92 623.585,735.587 622.5,733.5 Z"/></g>
<g><path style="opacity:1" fill="#5f686f" d="M 419.5,731.5 C 423.127,732.321 426.46,733.654 429.5,735.5C 426.102,735.82 422.768,735.487 419.5,734.5C 420.791,733.473 420.791,732.473 419.5,731.5 Z"/></g>
<g><path style="opacity:0.435" fill="#b4bbc6" d="M 429.5,735.5 C 431.553,735.402 433.22,736.069 434.5,737.5C 432.447,737.598 430.78,736.931 429.5,735.5 Z"/></g>
<g><path style="opacity:0.078" fill="#bec5cc" d="M 434.5,737.5 C 438.162,737.723 441.495,738.723 444.5,740.5C 440.838,740.277 437.505,739.277 434.5,737.5 Z"/></g>
<g><path style="opacity:1" fill="#5a666e" d="M 587.5,740.5 C 583.571,741.711 580.571,740.377 578.5,736.5C 575.601,737.642 572.601,738.308 569.5,738.5C 572.914,737.098 576.414,735.765 580,734.5C 583.193,735.674 585.693,737.674 587.5,740.5 Z"/></g>
<g><path style="opacity:0.753" fill="#aeb5bd" d="M 627.5,738.5 C 629.749,739.08 631.415,740.413 632.5,742.5C 630.251,741.92 628.585,740.587 627.5,738.5 Z"/></g>
<g><path style="opacity:0.949" fill="#88949c" d="M 569.5,738.5 C 566.619,740.68 563.286,741.68 559.5,741.5C 562.55,739.899 565.884,738.899 569.5,738.5 Z"/></g>
<g><path style="opacity:0.071" fill="#c3cad3" d="M 444.5,740.5 C 448.761,740.898 452.761,741.898 456.5,743.5C 452.163,743.416 448.163,742.416 444.5,740.5 Z"/></g>
<g><path style="opacity:0.11" fill="#e7eef5" d="M 587.5,740.5 C 588.833,740.5 589.5,741.167 589.5,742.5C 588.5,742.167 587.833,741.5 587.5,740.5 Z"/></g>
<g><path style="opacity:1" fill="#353f4d" d="M 587.5,740.5 C 587.833,741.5 588.5,742.167 589.5,742.5C 591.5,745.167 593.833,747.5 596.5,749.5C 597.5,751.167 598.833,752.5 600.5,753.5C 605.44,756.77 609.773,760.77 613.5,765.5C 613.5,765.833 613.5,766.167 613.5,766.5C 611.932,767.473 610.265,767.64 608.5,767C 608.833,766.667 609.167,766.333 609.5,766C 607.101,765.269 604.935,764.102 603,762.5C 600.562,763.866 600.062,763.366 601.5,761C 598.947,758.946 596.947,756.446 595.5,753.5C 592.239,752.289 588.905,751.289 585.5,750.5C 586.167,749.833 586.833,749.167 587.5,748.5C 586.194,747.088 585.36,745.421 585,743.5C 581.715,744.205 579.215,742.872 577.5,739.5C 576.702,739.957 576.369,740.624 576.5,741.5C 571.002,743.21 565.335,743.876 559.5,743.5C 559.5,744.833 559.5,746.167 559.5,747.5C 540.864,748.739 522.197,750.072 503.5,751.5C 496.071,750.012 488.737,748.679 481.5,747.5C 495.683,748.788 509.683,748.788 523.5,747.5C 528.453,747.877 533.119,747.211 537.5,745.5C 540.662,744.889 543.829,744.222 547,743.5C 548.412,744.923 549.579,744.756 550.5,743C 553.478,742.304 556.478,741.804 559.5,741.5C 563.286,741.68 566.619,740.68 569.5,738.5C 572.601,738.308 575.601,737.642 578.5,736.5C 580.571,740.377 583.571,741.711 587.5,740.5 Z"/></g>
<g><path style="opacity:0.059" fill="#e4e9f0" d="M 589.5,742.5 C 592.833,743.833 595.167,746.167 596.5,749.5C 593.833,747.5 591.5,745.167 589.5,742.5 Z"/></g>
<g><path style="opacity:0.533" fill="#cad2d8" d="M 632.5,743.5 C 635.089,744.419 637.089,746.086 638.5,748.5C 635.911,747.581 633.911,745.914 632.5,743.5 Z"/></g>
<g><path style="opacity:0.071" fill="#d9e1e4" d="M 767.5,741.5 C 767.5,743.5 766.5,744.5 764.5,744.5C 765.167,743.167 766.167,742.167 767.5,741.5 Z"/></g>
<g><path style="opacity:0.882" fill="#a8b1b7" d="M 537.5,745.5 C 533.119,747.211 528.453,747.877 523.5,747.5C 527.98,746.479 532.647,745.813 537.5,745.5 Z"/></g>
<g><path style="opacity:0.11" fill="#e1e6ea" d="M 764.5,745.5 C 764.573,747.027 763.906,748.027 762.5,748.5C 762.427,746.973 763.094,745.973 764.5,745.5 Z"/></g>
<g><path style="opacity:0.051" fill="#d0d6d9" d="M 596.5,749.5 C 598.833,749.833 600.167,751.167 600.5,753.5C 598.833,752.5 597.5,751.167 596.5,749.5 Z"/></g>
<g><path style="opacity:0.059" fill="#eaf0f3" d="M 762.5,748.5 C 762.167,750.833 760.833,752.167 758.5,752.5C 759.5,750.833 760.833,749.5 762.5,748.5 Z"/></g>
<g><path style="opacity:1" fill="#2f3945" d="M 794.5,695.5 C 794.443,696.609 794.11,697.609 793.5,698.5C 792.599,699.29 791.932,700.29 791.5,701.5C 791.293,704.241 790.293,706.574 788.5,708.5C 786.896,709.287 786.229,710.62 786.5,712.5C 785.5,712.833 784.833,713.5 784.5,714.5C 784.737,715.791 784.404,716.791 783.5,717.5C 782.094,717.973 781.427,718.973 781.5,720.5C 780.527,722.149 779.527,723.816 778.5,725.5C 777.5,725.833 776.833,726.5 776.5,727.5C 776.5,727.833 776.5,728.167 776.5,728.5C 775.5,728.833 774.833,729.5 774.5,730.5C 772.41,734.354 770.076,738.02 767.5,741.5C 766.167,742.167 765.167,743.167 764.5,744.5C 764.5,744.833 764.5,745.167 764.5,745.5C 763.094,745.973 762.427,746.973 762.5,748.5C 760.833,749.5 759.5,750.833 758.5,752.5C 758.167,753.167 757.833,753.833 757.5,754.5C 756.5,754.833 755.833,755.5 755.5,756.5C 754.833,757.5 754.167,758.5 753.5,759.5C 752.167,760.167 751.167,761.167 750.5,762.5C 749.974,764.23 748.974,765.564 747.5,766.5C 746.833,766.833 746.167,767.167 745.5,767.5C 744.662,761.027 747.329,757.027 753.5,755.5C 753.33,754.178 753.663,753.011 754.5,752C 753.552,751.517 752.552,751.351 751.5,751.5C 751.343,750.127 751.51,748.793 752,747.5C 753.594,748.716 755.094,750.049 756.5,751.5C 757.519,750.313 758.686,749.313 760,748.5C 760.919,744.427 762.752,740.761 765.5,737.5C 767.214,738.609 767.881,737.942 767.5,735.5C 771.449,735.307 771.449,734.807 767.5,734C 768.293,732.915 768.96,731.748 769.5,730.5C 768.833,730.167 768.167,729.833 767.5,729.5C 767.866,727.578 768.032,725.578 768,723.5C 769.016,722.366 769.683,722.699 770,724.5C 774.807,723.524 778.307,720.857 780.5,716.5C 779.313,715.481 778.313,714.314 777.5,713C 779.279,713.979 780.945,713.646 782.5,712C 783.505,707.81 785.839,704.644 789.5,702.5C 789.162,700.345 789.162,698.011 789.5,695.5C 791.167,695.5 792.833,695.5 794.5,695.5 Z"/></g>
<g><path style="opacity:0.071" fill="#e4eef0" d="M 757.5,754.5 C 757.5,755.833 756.833,756.5 755.5,756.5C 755.833,755.5 756.5,754.833 757.5,754.5 Z"/></g>
<g><path style="opacity:0.051" fill="#e1e7e9" d="M 753.5,759.5 C 753.5,761.5 752.5,762.5 750.5,762.5C 751.167,761.167 752.167,760.167 753.5,759.5 Z"/></g>
<g><path style="opacity:0.635" fill="#c3ccd4" d="M 653.5,763.5 C 657.436,765.766 660.769,768.766 663.5,772.5C 659.564,770.234 656.231,767.234 653.5,763.5 Z"/></g>
<g><path style="opacity:0.11" fill="#d6dce3" d="M 613.5,766.5 C 613.5,766.167 613.5,765.833 613.5,765.5C 618.44,768.77 622.773,772.77 626.5,777.5C 621.893,774.232 617.559,770.565 613.5,766.5 Z"/></g>
<g><path style="opacity:0.071" fill="#dae0e4" d="M 747.5,766.5 C 746.243,769.427 744.243,771.761 741.5,773.5C 742.415,771.246 743.748,769.246 745.5,767.5C 746.167,767.167 746.833,766.833 747.5,766.5 Z"/></g>
<g><path style="opacity:0.761" fill="#b8c1c8" d="M 672.5,781.5 C 676.1,783.43 679.1,786.097 681.5,789.5C 677.9,787.57 674.9,784.903 672.5,781.5 Z"/></g>
<g><path style="opacity:0.09" fill="#e6edf3" d="M 630.5,781.5 C 635.5,784.5 639.5,788.5 642.5,793.5C 638.167,789.833 634.167,785.833 630.5,781.5 Z"/></g>
<g><path style="opacity:0.118" fill="#d3dce2" d="M 727.5,787.5 C 726.738,789.262 725.404,790.262 723.5,790.5C 724.262,788.738 725.596,787.738 727.5,787.5 Z"/></g>
<g><path style="opacity:0.078" fill="#d2dae0" d="M 681.5,789.5 C 684.5,791.833 687.167,794.5 689.5,797.5C 685.833,795.833 683.167,793.167 681.5,789.5 Z"/></g>
<g><path style="opacity:1" fill="#283042" d="M 613.5,766.5 C 617.559,770.565 621.893,774.232 626.5,777.5C 628.167,778.5 629.5,779.833 630.5,781.5C 634.167,785.833 638.167,789.833 642.5,793.5C 643.167,793.5 643.5,793.833 643.5,794.5C 644.167,795.833 645.167,796.833 646.5,797.5C 650.146,799.482 653.146,802.149 655.5,805.5C 658.167,808.833 661.167,811.833 664.5,814.5C 664.804,815.15 665.137,815.817 665.5,816.5C 662.598,821.766 664.098,823.766 670,822.5C 671.845,824.867 673.011,827.533 673.5,830.5C 672.5,830.833 671.833,831.5 671.5,832.5C 669.574,833.486 667.574,834.486 665.5,835.5C 663.326,835.75 661.659,836.75 660.5,838.5C 660.158,839.338 659.492,839.672 658.5,839.5C 655.088,840.042 652.088,841.375 649.5,843.5C 646.878,845.644 643.878,846.977 640.5,847.5C 641.277,844.888 642.944,843.055 645.5,842C 644.692,841.692 644.025,841.192 643.5,840.5C 644.689,839.571 646.022,839.238 647.5,839.5C 647.5,831.5 647.5,823.5 647.5,815.5C 644.833,815.5 642.167,815.5 639.5,815.5C 639.5,812.833 639.5,810.167 639.5,807.5C 636.833,807.5 634.167,807.5 631.5,807.5C 631.5,804.833 631.5,802.167 631.5,799.5C 625.5,800.167 622.833,797.5 623.5,791.5C 620.833,791.5 618.167,791.5 615.5,791.5C 615.5,788.833 615.5,786.167 615.5,783.5C 612.833,783.5 610.167,783.5 607.5,783.5C 607.5,779.833 607.5,776.167 607.5,772.5C 604.833,772.5 602.167,772.5 599.5,772.5C 599.5,770.833 599.5,769.167 599.5,767.5C 596.833,767.5 594.167,767.5 591.5,767.5C 591.5,766.5 591.5,765.5 591.5,764.5C 588.833,764.5 586.167,764.5 583.5,764.5C 583.5,762.833 583.5,761.167 583.5,759.5C 580.833,759.5 578.167,759.5 575.5,759.5C 575.5,756.833 575.5,754.167 575.5,751.5C 559.5,750.833 559.5,750.167 575.5,749.5C 575.279,746.721 575.612,744.054 576.5,741.5C 576.369,740.624 576.702,739.957 577.5,739.5C 579.215,742.872 581.715,744.205 585,743.5C 585.36,745.421 586.194,747.088 587.5,748.5C 586.833,749.167 586.167,749.833 585.5,750.5C 588.905,751.289 592.239,752.289 595.5,753.5C 596.947,756.446 598.947,758.946 601.5,761C 600.062,763.366 600.562,763.866 603,762.5C 604.935,764.102 607.101,765.269 609.5,766C 609.167,766.333 608.833,766.667 608.5,767C 610.265,767.64 611.932,767.473 613.5,766.5 Z"/></g>
<g><path style="opacity:0.059" fill="#c3cad1" d="M 643.5,794.5 C 645.5,794.5 646.5,795.5 646.5,797.5C 645.167,796.833 644.167,795.833 643.5,794.5 Z"/></g>
<g><path style="opacity:0.071" fill="#dae2e6" d="M 720.5,793.5 C 719.738,795.262 718.404,796.262 716.5,796.5C 717.262,794.738 718.596,793.738 720.5,793.5 Z"/></g>
<g><path style="opacity:1" fill="#818c92" d="M 715.5,796.5 C 714.7,798.741 713.034,799.741 710.5,799.5C 711.605,797.777 713.272,796.777 715.5,796.5 Z"/></g>
<g><path style="opacity:0.318" fill="#c3cdd8" d="M 689.5,797.5 C 691.027,797.427 692.027,798.094 692.5,799.5C 690.973,799.573 689.973,798.906 689.5,797.5 Z"/></g>
<g><path style="opacity:0.553" fill="#929c9e" d="M 692.5,799.5 C 695.518,799.704 698.518,800.037 701.5,800.5C 698.373,801.815 695.373,801.482 692.5,799.5 Z"/></g>
<g><path style="opacity:0.051" fill="#dadfe4" d="M 655.5,805.5 C 659.5,807.5 662.5,810.5 664.5,814.5C 661.167,811.833 658.167,808.833 655.5,805.5 Z"/></g>
<g><path style="opacity:1" fill="#3c444e" d="M 664.5,814.5 C 667.764,816.094 670.431,818.427 672.5,821.5C 673.167,822.833 674.167,823.833 675.5,824.5C 677.377,825.659 677.877,827.326 677,829.5C 676.329,830.252 675.496,830.586 674.5,830.5C 674.167,830.5 673.833,830.5 673.5,830.5C 673.011,827.533 671.845,824.867 670,822.5C 664.098,823.766 662.598,821.766 665.5,816.5C 665.137,815.817 664.804,815.15 664.5,814.5 Z"/></g>
<g><path style="opacity:0.059" fill="#ecf4f5" d="M 672.5,821.5 C 674.5,821.5 675.5,822.5 675.5,824.5C 674.167,823.833 673.167,822.833 672.5,821.5 Z"/></g>
<g><path style="opacity:0.239" fill="#c7d2ea" d="M 338.5,829.5 C 340.027,829.427 341.027,830.094 341.5,831.5C 339.973,831.573 338.973,830.906 338.5,829.5 Z"/></g>
<g><path style="opacity:0.098" fill="#e1e8ec" d="M 673.5,830.5 C 673.833,830.5 674.167,830.5 674.5,830.5C 674.027,831.906 673.027,832.573 671.5,832.5C 671.833,831.5 672.5,830.833 673.5,830.5 Z"/></g>
<g><path style="opacity:0.176" fill="#cfd9df" d="M 665.5,835.5 C 664.341,837.25 662.674,838.25 660.5,838.5C 661.659,836.75 663.326,835.75 665.5,835.5 Z"/></g>
<g><path style="opacity:1" fill="#656f7b" d="M 346.5,833.5 C 351.894,834.979 356.561,836.646 360.5,838.5C 361.18,839.86 361.847,841.193 362.5,842.5C 356.448,840.482 351.114,837.482 346.5,833.5 Z"/></g>
<g><path style="opacity:0.188" fill="#ced8dd" d="M 658.5,839.5 C 655.912,841.625 652.912,842.958 649.5,843.5C 652.088,841.375 655.088,840.042 658.5,839.5 Z"/></g>
<g><path style="opacity:0.169" fill="#d3dee4" d="M 364.5,843.5 C 367.241,843.707 369.574,844.707 371.5,846.5C 368.759,846.293 366.426,845.293 364.5,843.5 Z"/></g>
<g><path style="opacity:1" fill="#798491" d="M 371.5,846.5 C 373.898,846.259 375.898,846.926 377.5,848.5C 375.102,848.741 373.102,848.074 371.5,846.5 Z"/></g>
<g><path style="opacity:0.306" fill="#b7c4cc" d="M 379.5,849.5 C 381.027,849.427 382.027,850.094 382.5,851.5C 380.973,851.573 379.973,850.906 379.5,849.5 Z"/></g>
<g><path style="opacity:0.196" fill="#c8d5dd" d="M 383.5,851.5 C 385.553,851.402 387.22,852.069 388.5,853.5C 386.447,853.598 384.78,852.931 383.5,851.5 Z"/></g>
<g><path style="opacity:1" fill="#8a939c" d="M 393.5,855.5 C 396.01,855.054 398.01,855.72 399.5,857.5C 397.214,857.405 395.214,856.738 393.5,855.5 Z"/></g>
<g><path style="opacity:0.071" fill="#ced6dc" d="M 617.5,856.5 C 615.485,857.924 613.152,858.59 610.5,858.5C 612.515,857.076 614.848,856.41 617.5,856.5 Z"/></g>
<g><path style="opacity:0.843" fill="#a5aeb8" d="M 402.5,858.5 C 405.916,858.528 408.916,859.528 411.5,861.5C 408.215,861.072 405.215,860.072 402.5,858.5 Z"/></g>
<g><path style="opacity:0.071" fill="#d1d9de" d="M 610.5,858.5 C 608.898,860.074 606.898,860.741 604.5,860.5C 606.214,859.262 608.214,858.595 610.5,858.5 Z"/></g>
<g><path style="opacity:0.761" fill="#85919f" d="M 412.5,861.5 C 415.228,861.171 417.562,861.837 419.5,863.5C 416.848,863.59 414.515,862.924 412.5,861.5 Z"/></g>
<g><path style="opacity:0.733" fill="#9fadb1" d="M 419.5,863.5 C 422.428,863.565 425.095,864.232 427.5,865.5C 424.505,865.706 421.838,865.04 419.5,863.5 Z"/></g>
<g><path style="opacity:0.149" fill="#c3cdd2" d="M 597.5,862.5 C 595.162,864.04 592.495,864.706 589.5,864.5C 591.905,863.232 594.572,862.565 597.5,862.5 Z"/></g>
</svg>
